<?xml version="1.0" standalone="no"?>
<!DOCTYPE svg PUBLIC "-//W3C//DTD SVG 1.1//EN" "http://www.w3.org/Graphics/SVG/1.1/DTD/svg11.dtd" >
<svg xmlns="http://www.w3.org/2000/svg">
<metadata></metadata>
<defs>
<font id="onetricktonyregular" horiz-adv-x="917" >
<font-face units-per-em="2048" ascent="1638" descent="-410" />
<missing-glyph horiz-adv-x="448" />
<glyph horiz-adv-x="2048" />
<glyph horiz-adv-x="2048" />
<glyph unicode="&#xd;" horiz-adv-x="591" />
<glyph unicode=" "  horiz-adv-x="448" />
<glyph unicode="&#x09;" horiz-adv-x="448" />
<glyph unicode="&#xa0;" horiz-adv-x="448" />
<glyph unicode="!" horiz-adv-x="729" d="M160 55q0 47 45 76q37 25 76 25q45 0 76.5 -36t31.5 -71q0 -27 -30.5 -63.5t-55.5 -36.5h-39q-29 0 -67 49q-37 43 -37 57zM352 639q0 31 10 127q20 117 80 424q14 70 15 280q29 25 75 52q49 8 89 -27q31 -29 36 -68q4 -18 5 -43q0 -131 -93 -428q-55 -164 -110 -329 q-12 -14 -43 -23.5t-35 -11.5q-23 4 -29 47z" />
<glyph unicode="&#x22;" horiz-adv-x="653" d="M68 1559q0 31 25.5 53t49.5 22q29 0 65 -16t36 -25q14 -96 39 -295q4 -4 9 -20t9 -16q27 68 37 98q16 55 27 131v90q6 68 61 68q88 0 106 -47q9 -16 9 -129q0 -354 -97 -355q-27 0 -55 53q-12 33 -27 66l-6 -23q-14 -92 -24 -120q-27 -72 -88 -72q-66 0 -127 264 q-49 211 -49 273z" />
<glyph unicode="#" horiz-adv-x="1142" d="M68 1288q0 23 28 43q23 16 31 17q4 0 104.5 -21.5t151.5 -26.5q20 47 40.5 97.5t82.5 50.5q29 0 62.5 -23.5t33.5 -60.5q0 -8 -10 -31q-12 -29 -17 -41q18 -6 80 -6q-4 0 98.5 169t147.5 167q14 0 56 -27.5t42 -48.5q0 -14 -58 -124.5t-77 -137.5l146 -29q49 -18 41 -55 q-84 -33 -242 -47q-20 -63 -33 -123l176 -16q74 -8 113 -53q-6 -18 -45 -27q-2 -2 -130 -16.5t-128 -24.5l-4 -252q-14 -18 -41 -18q-53 0 -96 122q-18 68 -37 134h-17q-51 -59 -104 -119q-84 -96 -111 -96q-94 0 -94 120q0 35 10 70q-53 12 -106 27q-76 27 -76 92 q0 66 119 65h51h53q8 27 27 92v19q-31 10 -115 18q-76 8 -106 25q-47 29 -47 96zM487 1026q49 53 88 119h-65q-10 -39 -23 -119z" />
<glyph unicode="$" horiz-adv-x="1245" d="M106 268q0 102 109 375q125 313 229 307q37 0 35 -41q-47 -111 -96 -221q-96 -246 -104 -385q-8 -168 63 -172q115 -6 135 43q6 47 12 92q16 49 119 43q33 -2 41 -6q20 -8 41 -45q96 37 183.5 124t91.5 165q8 160 -265 334q-174 98 -346 198q-125 100 -118 207 q4 102 153 144q92 25 215 22q14 158 29 315q27 199 115 195q29 -2 63 -23q43 -27 55 -67l-104 -465q-2 -14 28.5 -49t28.5 -82q-4 -80 -71 -76q-10 0 -14.5 4t-14.5 4q-10 2 -32.5 -13t-33.5 -13q-39 2 -51 62.5t-22 60.5q-127 6 -146 -45q8 -55 199 -164q248 -139 340 -224 q180 -161 174 -354q-2 -106 -162 -272q-98 -102 -209 -152q-92 -41 -99 -55t-42 -252q-31 -215 -94 -266l-37 2q-51 35 -51 203v66v71q0 68 -4 110q-106 -10 -136 -8q-106 4 -163 113q-43 84 -44 190z" />
<glyph unicode="%" horiz-adv-x="1376" d="M59 -86q-14 152 398 698q-225 57 -246 297q-6 72 55 230q74 190 170 198q109 10 211 -90q96 -96 117 -217q94 129 190 256q180 233 224 238q31 2 73.5 -23.5t44.5 -52.5q0 -16 -174 -246q-207 -270 -252 -338q66 18 152 39q242 23 264 -246q16 -182 -104 -405 q-139 -258 -346 -277q-104 -8 -191 80q-76 78 -102 185q-14 53 6 213q-100 -109 -232 -289q-106 -152 -213 -301q-43 20 -45 51zM393 907q6 -59 37 -116l33 -15q126 74 112 246q-2 16 -22 70q-29 66 -53 63q-55 -4 -86 -119q-25 -88 -21 -129zM731 272q12 -156 86 -149 q143 14 236 227q75 178 65 303q-6 70 -10 84q-20 47 -84 41q-16 -2 -66 -22q2 -35 -10 -45q-31 -10 -80 -37q-72 -61 -110 -193q-35 -115 -27 -209z" />
<glyph unicode="&#x26;" horiz-adv-x="1382" d="M80 16q8 111 100 271q39 66 158 229.5t151 190.5q4 4 -24 65q-35 74 -41 100q-57 233 -57 394q0 41 2 84q12 166 82 311q94 199 245 188q143 -10 234 -100q104 -100 94 -264q-6 -104 -63.5 -258t-120.5 -240q-35 -51 -92 -145q-6 -12 -84 -111q-2 -47 110 -217 q96 -145 133 -182q217 227 217 456q0 41 -8 80q4 23 31 37.5t49 12.5q102 -8 88 -203q-8 -133 -137 -328q-61 -90 -125 -182q-2 -4 70.5 -94.5t72.5 -104.5q-6 -70 -57 -65q-33 2 -106.5 77.5t-81.5 75.5q4 0 -121 -82q-145 -96 -271 -151q-176 -80 -295 -72q-72 4 -118 88 q-39 74 -35 139zM260 18q-2 -39 6 -55l39 -14q74 -6 340 145q6 4 158 131q-80 102 -242 346l-18 -18q-84 -119 -166 -240q-106 -168 -117 -295zM547 1243q0 -119 59 -379q139 231 170 289q97 187 105 322q6 74 -23 135q-37 82 -115 86q-86 6 -145 -158q-43 -113 -49 -203 q-2 -49 -2 -92z" />
<glyph unicode="'" horiz-adv-x="430" d="M133 1085q0 25 14 148q18 147 37 223q14 53 84 53q43 0 82 -45q33 -39 33 -65q0 -6 -39 -156q-47 -172 -63 -246q-14 -14 -27 -28q-25 -20 -59 -31q-62 41 -62 147z" />
<glyph unicode="(" horiz-adv-x="915" d="M100 373q0 150 50 311q37 125 135 348q53 123 252 357q246 291 391 290q20 0 63 -40t43 -70q0 -37 -33 -68q-82 -2 -200 -108q-106 -92 -178 -203q-47 -66 -95 -133q-88 -131 -147 -281q-82 -205 -113 -434q0 -211 94 -291q29 -25 87 -65q14 -10 77.5 -20.5t79.5 -33.5 q-45 -27 -155 -26q-39 0 -66 6q-285 141 -285 461z" />
<glyph unicode=")" horiz-adv-x="950" d="M23 -119q4 16 20 41q61 33 178 103q84 51 150 129q33 39 139 186q70 96 113 260q41 154 41 295q0 420 -326 676q-31 25 -19 117q31 33 93 32q37 0 129 -73q131 -106 211 -277q111 -236 104 -559q0 -133 -86 -340q-96 -231 -231 -356q6 0 -58 -58q-74 -70 -153 -118 q-117 -71 -236 -91q-47 -8 -69 33z" />
<glyph unicode="*" horiz-adv-x="1165" d="M63 1231q0 20 20.5 44.5t37.5 24.5q8 0 159.5 -17t194.5 -17q37 80 72 159q61 129 94 129q27 0 56.5 -18t29.5 -45q0 -35 -104 -227q55 -6 163 -23q0 20 2 80q-2 0 19 20q10 -33 35 -104q2 0 116 -23q105 -18 105 -61q0 -47 -66 -84q-90 -53 -102 -65l127 -404v-72 q-6 -2 -24.5 -10t-26.5 -8q-43 0 -197 123q-86 72 -170 143l-289 -244h-36q-31 0 -50.5 23t-19.5 41q0 33 76.5 187.5t79.5 191.5l-115 80q-20 10 -94 73q-92 78 -93 103zM336 1171q6 -35 78 -71q10 26 26 71h-104zM463 840l29 24l-15 15q-14 -12 -14 -39zM526 1008 q4 -4 37 -33q25 -20 31 -21q8 0 103.5 73t99.5 91q-6 16 -65.5 29.5t-100.5 13.5h-47q-10 -25 -58 -153zM711 864q36 -39 108 -100v27q0 4 -9 62t-9 83q-16 -12 -60 -43z" />
<glyph unicode="+" horiz-adv-x="1036" d="M88 614q0 119 328 119q8 18 8 64q0 12 -2 45v49q0 135 76 135q125 0 125 -102q0 -18 -9 -84q-4 -57 -2 -92q12 -8 142 -15l106 -4q88 -8 88 -39q0 -55 -110 -82q-72 -12 -146 -24q-35 -4 -98 -21q-23 -203 -29 -235q-37 -160 -123 -187q-18 6 -28 176q-11 204 -15 220 q-190 -33 -182 -33q-29 0 -76 33q-53 37 -53 77z" />
<glyph unicode="," horiz-adv-x="587" d="M135 -250q0 51 8 78q31 68 80 186q8 39 33 117q27 55 78 55q49 0 83 -27.5t34 -74.5q0 -66 -118 -222.5t-181 -180.5q-16 12 -17 69z" />
<glyph unicode="-" horiz-adv-x="1193" d="M133 641q0 31 19.5 57.5t40.5 28.5q178 18 356 39q203 18 350 18q74 0 143 -4q16 -10 33 -21t12 -36q-2 -27 -37.5 -35t-72.5 -14q-604 -135 -664 -135q-8 0 -27.5 -4.5t-27.5 -4.5q-41 0 -80 29q-45 33 -45 82z" />
<glyph unicode="." horiz-adv-x="540" d="M195 61q0 102 139 103q25 0 51.5 -33t26.5 -53q0 -37 -33 -70q-37 -39 -84 -39q-100 0 -100 92z" />
<glyph unicode="/" horiz-adv-x="860" d="M39 -59q0 27 8 63q16 74 105 305q178 498 522 1411q4 10 28.5 16.5t36.5 4.5q33 -8 67 -40t28 -63q-106 -285 -320 -850q-90 -227 -178 -456q-111 -293 -141 -465q-4 -2 -26 -19.5t-40 -17.5q-10 0 -25 6q-66 27 -65 105z" />
<glyph unicode="0" horiz-adv-x="911" d="M68 354q0 152 168 445q176 307 292 307q84 0 113 -39q16 -20 21 -80q6 -49 28 -61q55 -12 105 -140q43 -112 43 -190q0 -203 -103 -399q-135 -254 -360 -254q-137 0 -228 141q-78 123 -79 270zM264 242q4 -35 31 -76q31 -47 67 -47q135 4 228 164q76 133 76 254 q0 53 -33 165q-43 152 -101 152q-78 4 -178 -217q-106 -225 -90 -395z" />
<glyph unicode="1" horiz-adv-x="745" d="M78 649q-4 74 115 205q72 74 145 145q10 20 125 162q20 53 76 144q49 -29 67 -41q54 -38 56 -58q2 -68 -41 -268q-23 -104 -46 -207q-31 -256 -94 -766q-31 -31 -32 -31q-18 -16 -39 -18q-27 8 -48 18q-47 25 -51 48l131 903q-53 -55 -153 -154q-18 -43 -39 -86 q-37 -74 -82 -78q-14 0 -52 34t-38 48z" />
<glyph unicode="2" horiz-adv-x="968" d="M76 557q-4 57 2 107q27 180 180 358q176 207 377 207q25 0 49 -4q98 -14 160.5 -97.5t62.5 -179.5q0 -139 -192 -416q-143 -197 -289 -393l-2 -24q0 -6 22 -19q41 -4 142 19q68 16 135 30q82 9 88 -22q-20 -45 -129 -109q-115 -66 -176 -57q-8 2 -77 2t-79 2 q-63 8 -106 71.5t-35 121.5q12 80 135 235q117 141 231 283q125 168 142 280q14 106 -45 115q-16 4 -33 4q-166 0 -289 -229q-102 -188 -102 -346q0 -37 10 -52q-39 -31 -74 -30q-33 0 -67.5 23.5t-40.5 119.5z" />
<glyph unicode="3" horiz-adv-x="954" d="M74 176q0 88 41 174q39 76 133 197q51 -29 51 -66q0 -12 -27.5 -128.5t-27.5 -127.5q0 -106 67 -106q106 0 248 84q160 92 160 192q0 33 -85 165t-85 194q0 74 71.5 149.5t71.5 136.5q0 35 -33 35q-84 0 -172 -49q-100 -55 -133 -143q14 -47 15 -74q0 -55 -58 -55 q-51 0 -98 82q-41 70 -41 100q0 117 186 221q156 88 248 88q109 0 186.5 -70.5t77.5 -175.5q2 -92 -65.5 -180t-67.5 -106q0 -27 71 -157t73 -214q2 -176 -213 -309q-180 -113 -326 -113q-154 10 -225 121q-43 67 -43 135z" />
<glyph unicode="4" horiz-adv-x="1081" d="M66 248q0 115 163 526q100 236 199 473l37 19q29 0 65.5 -38t32.5 -71q-88 -221 -153 -389q-154 -406 -160 -479q12 -12 20 -13q43 0 144 58q76 43 151 88q10 4 80 147q82 168 143 254q96 135 177 135q41 0 64.5 -42t23.5 -87q0 -92 -117 -233q-176 -213 -186 -229 q-31 -47 -31 -138q0 -37 7 -109.5t7 -103.5q0 -111 -69 -116q-76 47 -99 149q-16 82 -30 162q-195 -119 -277 -119q-61 0 -126.5 52.5t-65.5 103.5z" />
<glyph unicode="5" horiz-adv-x="958" d="M45 131q8 84 39 105q27 0 37 -9q-4 -49 22.5 -86t75.5 -37q90 0 161 72t89 178q-8 16 -80 66q-78 53 -117 104q-59 80 -63 187q-4 94 35 190q43 104 106 111q25 119 211 155q90 18 291 19q84 2 137 -43q41 -35 41 -60q0 -12 -26 -30q-129 -29 -230 -54q-240 -61 -291 -98 q-27 -27 -49 -127q-20 -84 -20 -129q0 -39 67 -82q104 -70 125 -90q68 -63 68 -151q0 -104 -131 -248q-137 -150 -256 -150h-58q-49 0 -118.5 75t-65.5 132z" />
<glyph unicode="6" horiz-adv-x="878" d="M68 319q0 74 22 154q-8 18 -8 41q0 68 76 102q141 289 237 422q188 256 373 256q133 0 143 -116q12 -133 -118 -166q-17 53 -21 104q-4 6 -22 4q-76 -6 -215 -202q-98 -137 -134 -209q133 -10 208 -52.5t139 -148.5q12 -23 23 -93.5t9 -101.5q-4 -111 -84 -229 q-90 -133 -209 -150q-27 -4 -53 -6q-131 -12 -241 92q-125 117 -125 299zM258 252q6 -61 39 -113q49 -72 131 -65q76 6 133 100q53 86 47 152q-6 84 -47 145q-47 76 -125 76q-66 2 -114 -23q-23 -68 -48 -133q-20 -74 -16 -139z" />
<glyph unicode="7" horiz-adv-x="995" d="M86 1010q45 57 107 94q82 47 174 59q68 8 168 8q401 0 401 -165q-2 -63 -72 -218q-88 -217 -246 -495q-170 -301 -327 -504q-23 -16 -43 -33q-35 -25 -55 -24q-27 0 -41 37q0 59 108 254q60 102 117 202q0 -2 173 344t177 398q-20 35 -100 43h-140q-104 0 -170 -29 q-45 -20 -67 -55q-8 -14 -14 -29q-12 -2 -25 -2q-49 0 -86 36t-39 79z" />
<glyph unicode="8" horiz-adv-x="935" d="M70 334q0 106 55 219q63 133 154 133q41 0 85 -39t44 -76q0 -20 -56.5 -108t-56.5 -184q0 -53 29 -99q23 -39 49 -55q10 -2 22 -2q66 0 133.5 59.5t81.5 130.5q4 23 -20 150q-14 76 -77.5 175t-135.5 159q-51 35 -103 71q-68 49 -98 93q-8 12 -8 40q-2 35 6 52 q88 63 204 106t204 43q286 0 286 -186q0 -53 -93 -171t-93 -132q0 -4 48 -123t48 -236q0 -137 -98 -266q-106 -137 -242 -137h-37q-139 0 -241 135q-90 119 -90 248zM432 963q43 -31 129 -115q29 47 57 96q33 59 31 88q-39 6 -61 4q-39 -2 -86 -18q-68 -23 -70 -55z" />
<glyph unicode="9" horiz-adv-x="833" d="M-14 -184q0 16 16 48t37 38q23 -29 65 -64q18 -4 37 -4q129 0 265 197q102 152 133 272l6 41q-55 -66 -129 -123t-115 -59q-70 -4 -125 23.5t-90 113.5q-23 59 -23 88q-4 109 94.5 301.5t235.5 329.5q156 158 289 158q41 0 68.5 -28t27.5 -69q0 -43 -18 -51 q-39 -16 -115 -55q-117 -70 -184 -164q-221 -313 -221 -432q0 -37 16 -60q14 -8 45 -2q256 172 256 392q0 39 -8 75q27 47 82 47q92 0 121 -149q18 -92 10 -215q-12 -211 -168 -473q-186 -315 -412 -316q-61 0 -123 33q-74 41 -73 107z" />
<glyph unicode=":" horiz-adv-x="540" d="M147 137q0 39 34 72t71 33q43 0 82 -34t39 -83q0 -37 -39 -73t-74 -36q-113 0 -113 121zM186 752q0 100 140 100q25 0 51 -32t26 -52q0 -37 -34.5 -73t-81.5 -36q-101 1 -101 93z" />
<glyph unicode=";" horiz-adv-x="587" d="M135 -250q0 51 8 78q31 68 80 186q8 39 33 117q27 55 78 55q49 0 83 -27.5t34 -74.5q0 -66 -118 -222.5t-181 -180.5q-16 12 -17 69zM240 786q0 25 22.5 61t50.5 36q144 0 144 -111q0 -37 -41 -61q-33 -18 -64 -19q-43 0 -77.5 28t-34.5 66z" />
<glyph unicode="&#x3c;" horiz-adv-x="731" d="M57 444q0 39 148 193q82 84 166 168q43 51 84 102q63 70 94 70q39 0 67.5 -25.5t28.5 -48.5q0 -51 -182 -233.5t-182 -202.5q0 -27 163 -141q103 -70 207 -138q-14 0 -20 -6q14 -27 12 -41q-6 -2 -26.5 -14t-30.5 -12h-27q6 0 -43 20l-22 -6q-436 229 -437 315z" />
<glyph unicode="=" horiz-adv-x="1183" d="M141 678q0 61 133 82q33 4 172 10q479 23 453 23q99 -2 158 -39q14 -37 0 -54q-23 -10 -397.5 -73.5t-403.5 -63.5q-37 0 -78 51q-37 45 -37 64zM172 367q0 41 36 69.5t77 28.5q375 16 422 16q250 0 352 -45q8 -33 -55 -65q-39 -16 -210 -48t-202 -32q-8 0 -156.5 -18.5 t-156.5 -18.5q-43 0 -78 47q-29 41 -29 66z" />
<glyph unicode="&#x3e;" horiz-adv-x="806" d="M80 166q0 39 220 180t220 164q0 20 -164 160q-156 129 -196 155q-47 68 -47 103q0 10 34.5 37.5t51.5 27.5q29 0 286.5 -232t257.5 -263q0 -51 -272 -242q-262 -182 -295 -182q-25 0 -60.5 35.5t-35.5 56.5z" />
<glyph unicode="?" horiz-adv-x="1105" d="M176 1454q-12 111 158 207q129 74 227 86q29 4 60 4q156 0 279.5 -87t135.5 -214q12 -115 -51 -222.5t-215 -238.5q-74 -61 -156 -145q-141 -143 -137 -191l2 -14q2 -10 25 -16q33 -8 45 -15q-4 -23 -8 -47q-10 -27 -56 -43q-6 -2 -57 -8q-49 -6 -100 65q-43 57 -47 97 q-6 70 81 172q68 68 136 135q127 119 254 235q145 145 133 250q-6 74 -123 111q-94 31 -160 20q-53 -8 -122.5 -46t-80.5 -70q-6 -20 11 -64q18 -53 18 -76q0 -37 -33 -63q-14 -4 -28 -4q-68 0 -131 69q-53 61 -60 113zM326 51q-10 106 163 135q58 -27 68 -127 q4 -39 -28.5 -70.5t-57.5 -35.5q-41 -4 -91 29.5t-54 68.5z" />
<glyph unicode="@" horiz-adv-x="2228" d="M113 254q0 371 336 721l81 80q176 180 453 288q295 117 608 115q252 -2 410 -307q129 -254 125 -518q-2 -154 -107 -348q-127 -242 -303 -242q-18 0 -67 10q-55 10 -72 23q-88 63 -133 178q-66 -59 -131 -117q-109 -94 -197 -102h-39q-59 0 -106 65q-41 53 -41 93 q0 80 109.5 252.5t244.5 299.5q154 147 258 148q31 0 86 -33q66 -37 72 -76q2 -16 -18.5 -38.5t-43.5 -22.5q-10 0 -50 8t-50 8q-78 0 -245 -226t-167 -300q0 -10 4 -12q53 4 125 59q57 45 201 232q137 174 135 174q29 0 77 -39t48 -62q0 -33 -41 -113.5t-41 -172.5 q0 -90 49 -91q131 2 213 203q59 141 60 230q0 254 -88 446q-115 256 -346 256q-285 0 -570.5 -150.5t-464.5 -394.5q-193 -262 -200 -553q-4 -172 102 -301q94 -115 258 -176q6 -4 12 -12q0 -2 -34 -12q-66 -13 -136 18q-211 86 -296 209q-80 113 -80 303z" />
<glyph unicode="A" horiz-adv-x="1437" d="M59 16q0 240 254 684q109 211 377 560q92 121 232 272q164 180 198 180q149 0 149 -185q0 -18 -1 -38q-8 -104 -21 -371q-2 -68 -10 -233q-4 -115 -4 -172l2 -402q63 -69 98 -184q25 -82 25 -186q0 -51 -64 -54h-4q-52 0 -126 114q-77 118 -87 216q-31 45 -69 80 q-88 82 -187 90q-4 0 -25.5 -49t-60.5 -49q-35 2 -67 90q-25 70 -27 106v7q0 65 72 65q86 0 190.5 -32.5t153.5 -71.5l24 735q0 27 2 123q4 82 4 127l-63 -41q-387 -408 -641 -914q-59 -121 -88 -227q-18 -92 -37 -184q-35 -150 -72 -150h-45q-25 0 -53.5 37t-28.5 57z" />
<glyph unicode="B" horiz-adv-x="2134" d="M31 -88q0 51 137 123q72 35 145 67q-20 94 -147 787q-16 20 -33 41q-23 31 -22 43q0 49 26 86q-2 106 -2 218.5t2 229.5q27 59 178 88q95 20 188 20q16 0 32 -1q383 -12 655 -88q207 -57 323 -146q88 -63 84 -96q-4 -47 -30 -70q-23 -12 -45 -26q16 0 122.5 -23.5 t145.5 -36.5q303 -104 305 -303q2 -78 -125 -192q-227 -207 -794 -459q-150 -61 -537 -205q-440 -162 -477 -162q-23 0 -77 40t-54 65zM283 1317q2 -102 8 -133q18 63 41 190q4 49 49 49q39 0 70 -28q38 -34 38 -89q0 -26 -38 -192q92 16 237 49q599 133 599 159q0 1 -1 1 q-59 68 -319 115q-231 41 -461 41q-209 0 -221 -49q-3 -11 -3 -57q0 -24 1 -56zM438 541q6 -248 51 -422q471 129 914 350q491 246 489 393q-27 168 -575 168q-57 0 -184 -7l-127 -7q-432 -35 -568 -105v-370z" />
<glyph unicode="C" horiz-adv-x="1630" d="M84 479q0 274 192 582q199 315 512 520q55 41 113 82q74 51 96 51q129 -4 248 -203q92 -152 160 -383q55 -190 55 -264q0 -12 -19.5 -32.5t-33.5 -20.5h-35q-16 0 -44 16.5t-34 36.5q-37 145 -73 291q-72 242 -195 356q-297 -152 -522 -472t-225 -588q0 -240 233 -340 q94 -35 221 -35q164 0 369 57q133 35 192 64q172 78 369 190q20 -14 20 -27q0 -4 -20 -45q-16 -29 -164 -135q-154 -111 -256 -160q-59 -33 -194 -71q-149 -41 -245 -41h-9q-201 2 -365 72q-233 98 -309 309q-37 102 -37 190z" />
<glyph unicode="D" horiz-adv-x="2205" d="M47 1190q0 45 92 110q76 57 125 72q123 37 301 37q360 0 580 -61q92 -8 315 -99q270 -106 449 -237q231 -168 243 -336v-7q0 -94 -202 -223q-152 -94 -279 -139q-291 -102 -729 -186q-342 -66 -459 -121q-4 -2 -34 -55q-23 -37 -48 -37h-30q-39 0 -70 55q-25 41 -29 76v6 q0 37 68 86q41 25 80 49q-31 100 -98 301q-43 111 -146 328q-29 59 -70 170q-59 156 -59 211zM375 1225q76 -12 76 -105q0 -25 -6.5 -59.5t-6.5 -40.5q10 -88 29 -254q12 -117 53 -295q41 -186 74 -260q231 66 641 156q109 23 430 137q80 25 180.5 95.5t100.5 107.5 q0 72 -162 192q-139 104 -264 158q-127 63 -379 131q-303 80 -523 80q-154 0 -243 -43z" />
<glyph unicode="E" horiz-adv-x="2162" d="M25 631q0 47 106 139q104 80 176 107q78 45 242 84q2 0 55 12l39 108q-23 8 -71 13.5t-62 5.5q-158 12 -182 16q-115 25 -115 101q0 45 20 51q68 23 201 43q111 18 137 18q410 53 764 53q82 0 158 -4q66 -2 172.5 -9t294.5 -32q207 -31 326 -80q6 -8 13 -17t7 -19 q0 -8 -4 -15q-55 -20 -86 -20q8 0 -273.5 13t-324.5 13q-10 0 -210 -4t-210 -4q-27 0 -65 -12q346 -80 346 -178q0 -72 -181 -103q-4 -2 -120 -16l-256 -35q-61 -6 -129 -22q-4 -14 -23 -84q-14 -74 -14 -119q0 -213 123 -367q137 -172 364 -172q59 0 129 15q168 37 393 174 q215 129 285 196q23 -14 23 -45q0 -15 -5 -33q0 -6 -61 -88q-47 -51 -106.5 -98t-157.5 -115q-76 -55 -211 -108q-156 -61 -262 -62q-21 -2 -44 -2q-49 0 -102 9q-135 14 -276 108q-86 63 -162 176q-70 96 -102 234h-46q-513 0 -513 174zM311 631q16 -35 168 -62l86 -10 q0 7 -4 61q-1 18 -1 41q0 45 5 109q-47 -2 -125 -35q-119 -45 -129 -104zM855 1040q0 -4 13 -5q14 -1 44 5q60 10 67 11l119 20q-20 2 -183 2q-39 0 -49 -8q-11 -19 -11 -25z" />
<glyph unicode="F" horiz-adv-x="1476" d="M70 1212q0 57 82 97q0 2 120 45q98 33 367 86q256 53 338 61q63 14 270 29q199 14 322 14q49 0 67 -2q193 -33 193 -98q0 -61 -117 -164q-143 -125 -336 -170q-10 0 -24.5 12.5t-20.5 14.5q0 16 25 32q37 23 37 25q74 37 141 102q61 59 61 80q0 4 -2 6q-49 8 -155 9 q-215 -4 -582 -78q-279 -55 -395 -94q72 -20 86 -62q-4 -117 -8 -233q-2 -147 -4 -238q76 12 221 25q66 1 112 1t74 -1q111 0 225 -33q156 -43 195 -117q-4 -22 -72 -22h-6q-47 0 -164 10q-104 4 -170 4q-287 -14 -393 -59q4 -23 53 -252q45 -213 45 -242t-24.5 -57.5 t-42.5 -28.5q-94 0 -154 227q-27 135 -61 293q-100 -33 -111 -33q-39 0 -65 52q-20 39 -21 63q0 35 57 66l82 36q-33 109 -96 291q-18 47 -88 178q-61 115 -61 125zM299 1149l8 -35q14 -33 45 -84v146q-29 -8 -53 -27z" />
<glyph unicode="G" horiz-adv-x="2353" d="M88 754q0 459 453 692q340 178 776 178q307 0 618 -223q328 -264 351 -600q-53 -51 -103 -51q-35 0 -51 26q-4 27 -14 76q-66 209 -154 319q-100 137 -328 224q-169 70 -343 70q-20 0 -40 -1q-315 0 -612 -170q-371 -211 -371 -561q0 -221 236 -436q221 -180 422 -215 q76 -12 111 -12q13 0 21 2q27 6 19 24q-82 96 -143 234q-59 131 -74 235q31 41 133 43q330 0 609 -59q499 -104 499 -358q0 -64 -284 -154q-248 -80 -303 -80l-86 -12q217 -231 544 -592q35 -53 140 -170q10 -12 55 -31.5t63 -38.5q29 -31 99 -143q82 -131 82 -170 q0 -45 -24 -85t-52 -40q-37 0 -43 2q-27 8 -45 43q-109 211 -563 725q-430 485 -469 489q-10 0 -125 -10q-207 0 -437 105q-244 111 -395 286q-172 203 -172 439zM1085 432q139 -340 228 -340h24q53 0 271 51q190 47 242.5 65.5t52.5 55.5q-68 78 -217 117q-111 31 -291 43 q-139 8 -275 14z" />
<glyph unicode="H" horiz-adv-x="1781" d="M80 707q0 90 358 274q8 2 162 74q2 14 2 55v135v12q0 141 92 201q59 -4 80 -20q29 -20 29 -84q0 -2 -13.5 -61.5t-13.5 -174.5l451 127l207 64q182 211 211 241q139 150 245 211q166 96 299 97q61 0 133 -23q84 -29 84 -66q0 -164 -397 -364q-209 -92 -416 -182 q-262 -268 -262 -672q0 -238 43 -395q49 -190 170 -332q150 -174 352 -197q8 -6 9 -14q0 -35 -117 -51q-330 49 -500 372q-133 254 -133 578q0 375 154 614q-57 -10 -242 -65q-211 -66 -283 -103l29 -387q6 -74 39 -305q31 -223 31 -217q0 -61 -62 -76q-2 0 -15 -5t-24 -5 q-31 0 -413 383q-45 43 -150 166q-139 162 -139 195zM289 690q0 -43 168 -209q156 -156 209 -184q-27 238 -58 598q-43 -16 -108.5 -44t-134.5 -79q-76 -53 -76 -82zM1751 1427q264 93 432 273q2 12 -20 12q-10 0 -23 -2q-80 -14 -211 -123q-25 -18 -178 -160z" />
<glyph unicode="I" horiz-adv-x="1703" d="M51 1362q0 98 408 211q338 95 454 95q9 0 17 -1q72 6 137 6q270 0 424 -102q166 -113 166 -320q0 -256 -232 -604q-213 -322 -505 -561q-301 -246 -494 -246q-156 29 -225 166q-39 82 -39 162v15q0 106 53 245q43 111 85 171t95 142q12 -10 13 -47q0 4 -38 -171t-38 -292 q0 -57 12 -112q18 -92 59 -92q12 -3 27 -3q83 0 244 97q244 145 510 510q278 380 278 639q0 172 -202 227q-96 25 -299 25q-115 0 -320 -66q-145 -47 -328 -123q-156 -66 -151 -65q-20 0 -65.5 33.5t-45.5 60.5z" />
<glyph unicode="J" horiz-adv-x="2852" d="M-37 27q12 133 115 276q43 57 201 174q186 137 301 164q27 10 45 10q25 0 30 -16q-27 -41 -131 -115q-119 -82 -151 -117q-27 -27 -54 -53q-59 -72 -102 -149q-59 -102 -70 -191q-1 -11 -1 -23q0 -159 184 -321q159 -144 407 -250q242 -94 512 -118q45 -4 125 -5 q283 0 471 64q334 98 432 403q63 203 103 494q27 236 55 471q2 135 47 377q45 217 58 256q53 170 167 301q-20 8 -34 8q-14 1 -33 1q-118 0 -404 -44q-406 -66 -671 -170q-352 -139 -369 -319v-12q0 -79 70 -189q25 -37 145 -191q76 -95 76 -132q0 -48 -35 -46 q-10 2 -27.5 8.5t-27.5 6.5q-16 2 -125 126.5t-135 182.5q-39 68 -78 135q-52 100 -52 166q0 7 1 14q12 141 223 271q154 96 393 174q184 59 238 61q289 74 551 94q158 8 315 17q165 26 212 26h9q55 -6 76 -63q10 -33 12 -94q-379 -231 -452 -1067q-53 -547 -117 -813 q-70 -293 -191 -410q-98 -113 -352 -207q-203 -87 -504 -87q-84 0 -176 7q-258 31 -428 82q-145 25 -348 150q-221 135 -358 301q-149 181 -149 349q0 16 1 32z" />
<glyph unicode="K" horiz-adv-x="2287" d="M76 1495q6 14 47 29.5t55 15.5q37 0 76 -26.5t39 -71.5q14 -354 33 -510q25 -203 94 -453q26 53 26 113q0 47 -15 117.5t-15 99.5q0 96 55 139q88 63 176 125q39 74 172 236q344 342 760 342q94 0 186 -27q129 -39 129 -113q0 -25 -462 -249q-547 -264 -678 -344 q-18 -10 -62 -105q-47 -102 -47 -156q0 -170 250 -319q190 -115 494 -201q240 -68 356 -76q162 -9 286 -9q212 0 312 26q-14 -68 -113 -105q-33 -12 -188 -47q-74 -16 -223 -16q-299 0 -672 129q-393 135 -574 321q-36 -82 -36 -206v-19q0 -16 2 -48t2 -44q0 -82 -74 -82 q-92 0 -193 348q-80 279 -143 692q-55 353 -55 485v9zM1012 1278h28q264 142 506 242q-178 -31 -284 -76q-137 -57 -250 -166z" />
<glyph unicode="L" horiz-adv-x="1632" d="M14 -104q31 63 74 159q2 2 29 72q49 254 98 510q98 481 221 745q170 367 405 367h17q170 -8 277 -162q91 -129 90 -285v-26q-6 -109 -95 -248q-92 -147 -196 -180q-52 -8 -79 -8q-19 0 -24 4q217 180 232 424v17q0 101 -43 181q-57 104 -162 105h-2q-149 0 -289 -348 q-100 -252 -186 -654q-63 -295 -68 -362l-14 -78q0 -2 20 -6q-2 0 101 27q123 31 250 49q177 26 357 26h13q66 0 134 -4q127 -6 247 -39q189 -48 189 -132q0 -77 -82 -163q-75 -82 -148 -82h-10l-45 2l2 27q27 31 53 60q51 61 52 120q-31 35 -191 43q-61 2 -123 2 q-446 0 -756 -129q-80 -33 -129 -88q-27 -33 -75 -33q-6 0 -13 1q-47 2 -84 20q-49 25 -47 66z" />
<glyph unicode="M" horiz-adv-x="2787" d="M59 -29q0 201 177 473q72 109 331 435q59 74 299 307q252 246 279 246q100 0 100 -107q0 -10 -131 -330q-131 -326 -139 -493q96 162 174 340q90 205 108.5 239.5t59.5 34.5q82 0 115 -98q10 -33 24 -162l6 -625q86 84 248 459q131 303 260 760q4 14 32 42t44 28 q31 0 65.5 -29t36.5 -49q14 -145 29 -416q4 -117 23 -270q25 -176 87 -343t220 -333q164 -143 342 -186q20 -4 61 -5q45 0 121 7l76 6q0 -1 39 -17q-8 -39 -115 -78q-92 -36 -144 -36h-3q-98 0 -199 32q-252 84 -432 326q-121 166 -172 358q-66 203 -80 441 q-86 -213 -158 -389q-119 -274 -219 -428q-137 -209 -248 -209q-114 0 -114 298v5q0 70 6 160t6 94t2 64.5t2 97.5q-43 -61 -130 -226.5t-132 -228.5q-72 -102 -127 -103q-66 0 -105 97q-30 72 -30 150v5q0 115 57 344q43 156 84 312q-272 -252 -526 -672q-57 -92 -97 -219 q-4 -47 -18 -139q-4 -14 -42 -37t-50 -23q-41 0 -72 31t-31 59z" />
<glyph unicode="N" horiz-adv-x="2048" d="M59 1526q0 31 50 53q37 16 59 16q68 0 166 -114q158 -182 176 -197q20 43 41.5 89t66.5 46q20 0 70 -20q57 -23 58 -47q0 -10 -44.5 -103.5t-44.5 -103.5q0 -66 379 -393q362 -313 500 -385q-100 211 -193 548q-104 387 -108 801l14 82q27 35 66 35q117 0 248 -174 q123 -166 131 -299q1 -10 1 -19q0 -50 -18 -96q-25 -69 -80 -69h-2q-20 0 -61 23.5t-47 45.5q55 12 59 17q20 10 21 53q0 49 -43 127q-45 86 -82 94q-2 -26 -2 -55q0 -175 63 -455q63 -270 139 -443t226 -399q129 -192 129 -202q0 -37 -27.5 -69t-52.5 -32q-49 0 -88 62 q-53 80 -78 96q-508 342 -571 389q-338 250 -590 520q-20 -57 -41 -176q-27 -139 -27 -233q0 6 44 -187.5t44 -339.5q0 -211 -88 -211q-182 0 -182 531v334q0 -8 -55 182q-41 150 -140 463q-4 8 -49 112q-37 78 -37 103zM397 1141q4 -23 15 -66q10 -35 10 -47q27 55 27 57z " />
<glyph unicode="O" horiz-adv-x="1810" d="M98 612q0 195 129 465q141 289 351 477q244 219 505 220q82 0 166 -43q106 -53 133 -144q6 -21 6 -44q0 -14 -2 -30q-8 -61 -8 -67q201 -78 303 -256q88 -148 88 -324q0 -385 -306 -691t-709 -331q-6 -1 -16 -1q-20 0 -54 3q-57 4 -63 4q-16 0 -64 17q-53 20 -84 41 q-213 143 -301 332q-74 158 -74 372zM297 567q0 -186 96 -354q125 -219 344 -219q313 0 572 268q268 277 268 633q0 211 -152 338q-137 117 -333 117q-100 0 -197 -41q-61 -27 -133 -76q-59 -41 -70 -41q-29 0 -28 29q0 135 202 219q145 59 246 59h131v29q-45 88 -135 88 q-193 0 -391 -180q-178 -164 -299 -412t-121 -457z" />
<glyph unicode="P" horiz-adv-x="2228" d="M63 940q0 76 77 186.5t155 155.5q295 170 629 219q206 34 506 34q84 0 174 -3q217 -2 501 -94q371 -121 371 -303q0 -176 -360 -392q-289 -170 -701 -311q-334 -117 -442 -117q-13 0 -23 2q53 -53 125 -141q109 -135 109 -184q0 -45 -29 -58q-14 -6 -61 -6q-80 0 -158 74 q-43 43 -123 154q-72 98 -111 125q-297 219 -374 286q-264 229 -265 373zM274 948q0 -72 105 -176q80 -71 160 -141l-2 22q-120 285 -120 459q0 18 1 35q-29 -6 -86.5 -85t-57.5 -114zM621 1130q0 -166 77 -385q72 -201 172 -344q41 45 179 80q182 45 196 51q227 90 455 183 q276 123 475 286q111 91 111 134q0 117 -347 198q-256 61 -391 62q-571 0 -917 -129q-10 -51 -10 -136z" />
<glyph unicode="Q" horiz-adv-x="1976" d="M82 489q0 203 175 499t419 499q276 229 520 229q270 0 346 -164q18 -41 19 -71q1 -11 1 -22q0 -39 -16 -73q158 -53 258.5 -203.5t100.5 -283.5q0 -170 -117 -369q-84 -147 -180 -237q-72 -68 -101 -88q81 -18 81 -62q0 -6 -1 -12q-4 -18 -172 -78q-217 -74 -270 -100 q20 -35 158 -35q8 0 82.5 11.5t121.5 17.5l21 -6l8 -45q-8 -43 -158 -78q-111 -25 -153 -25q-147 0 -250 57q-8 4 -35 35q-20 25 -33 25q-10 0 -68.5 -11.5t-68.5 -11.5q-264 0 -467 160q-221 174 -221 442zM254 485q0 -176 143 -317q129 -123 361 -131h10q175 0 410 135 q-289 86 -508 358q-161 253 -161 493q0 14 1 28q-92 -113 -172 -281q-84 -180 -84 -285zM700 963q0 -190 134 -373q137 -190 335 -271l99 -36q49 -20 57 -21q109 10 264 242q146 221 158 356q1 12 1 25q0 96 -67 213q-84 145 -198 149h1q0 -8 -245 -168q-256 -168 -336 -168 q-20 0 -39 35q37 31 232 152q164 102 221 178q-616 -27 -617 -313zM821 1366q254 76 410 76q53 0 162 -15q10 10 10 35q0 98 -152 99q-96 0 -215 -50q-129 -55 -215 -145z" />
<glyph unicode="R" horiz-adv-x="2158" d="M53 1481q0 96 238 151q160 37 272 37q305 0 703 -110q201 -57 407 -203q291 -203 291 -424q0 -156 -184 -324q-137 -123 -375 -250q-145 -74 -291 -145q109 -37 563 -109q412 -65 504 -114q-39 -74 -149 -74l-457 31q-18 0 -533 86q0 -8 9.5 -45t5.5 -60q-4 -25 -40 -49 t-56 -24q-137 0 -269 268q-74 152 -106 280q-33 123 -56 324q-23 39 -266 406q-211 317 -211 348zM254 1442l272 -418q4 31 4 141q0 147 13 197q31 115 141 115q45 0 45 -39l-39 -379q0 -207 6 -277q6 -55 88 -198q119 -207 140 -252q41 10 229 90q254 113 414 223 q223 156 223 287q0 180 -234 334q-186 121 -473 200q-227 64 -351 64h-21q-252 -10 -301 -17q-135 -18 -156 -71z" />
<glyph unicode="S" horiz-adv-x="2013" d="M2 1436q4 156 465 264q363 84 654 84h14q250 -2 456 -70q330 -108 330 -348q0 -80 -125 -143q-14 18 -14 53v55q-4 53 -41 101q-29 41 -94.5 81.5t-120.5 55.5q-96 25 -185 33q-76 8 -151 14q-29 2 -72 2q-233 0 -545 -72q-338 -80 -337 -160q0 -94 262 -223 q123 -51 350 -143q131 -45 262 -88q287 -104 465 -219q250 -160 250 -318q0 -172 -221 -344q-176 -135 -445 -239q-231 -90 -334 -91q-61 0 -104 27q-51 33 -51 94q0 86 73 209q90 150 211 168h52v-45q0 -4 -69 -82t-69 -145q0 -25 33 -25q55 0 227 70q201 82 332 176 q172 123 172 235q0 92 -215 211q-145 80 -262 127q-102 39 -203 76l-274 90q-279 100 -445 211q-233 154 -231 318z" />
<glyph unicode="T" horiz-adv-x="1851" d="M33 1475q0 68 194 106q141 29 267 29q4 0 60 6t69 8q14 252 131 252q94 -2 94 -98q0 -29 -10.5 -76t-10.5 -53h-1q0 1 267 29q284 30 554 30q143 0 251 -47q131 -57 132 -156q0 -78 -41 -125q-10 12 -21.5 51t-25.5 58q-23 27 -80 45q-49 26 -201 26q-126 0 -322 -18 q-53 0 -274 -33q-250 -37 -269.5 -65.5t-33.5 -294.5q-8 -174 -8 -346q0 -186 55 -449q55 -244 111 -487v-39q-27 12 -74 43q-9 -7 -9 -33q0 -31 13 -90q4 0 -47 0q-41 0 -78 70q-6 12 -37 90q-124 325 -124 771q0 46 1 93q1 35 1 65q0 113 -18 165q-22 66 -122 180 q-70 80 -160 131q-23 12 -145 65q-14 6 -51 45t-37 52zM478 1268q52 -78 87 -121l29 289h-37q-31 0 -80 -23q-53 -26 -53 -51q0 -13 54 -94z" />
<glyph unicode="U" horiz-adv-x="1984" d="M39 82q0 41 186 418q96 199 195 397q49 139 96 279q63 182 82 292q8 55 18 113q12 74 32 107.5t79 33.5q27 0 66 -24q29 -20 59 -41q-82 -362 -256 -783q-150 -336 -299 -673q47 -16 90 -17q231 0 537 80q336 88 419 197q27 100 66 319q14 86 35 260q3 70 3 159t-3 196 q64 32 94 32h2q115 0 249 -131t134 -257q0 -328 -403 -670q-1 -18 -1 -36q0 -151 62 -259q81 -103 197 -103h2v-43q-55 -39 -78 -45q-8 -2 -51 -2q-244 0 -324 385q-106 -78 -528 -186q-430 -109 -654 -109q-41 0 -73.5 38t-32.5 73zM1561 625q82 117 129 192.5t47 167.5 q0 68 -105 223q-12 -170 -33 -348q-23 -156 -38 -235z" />
<glyph unicode="V" horiz-adv-x="1181" d="M90 762q12 201 29 307q25 135 48 229q21 87 85 86h10q41 -2 78 -63q23 -38 23 -67q0 -7 -1 -13q0 -10 -26.5 -120.5t-44.5 -237.5q-22 -142 -23 -293q0 -59 4 -119q27 -256 123 -395q231 201 500 727q147 322 182 655q14 108 14 196q0 128 -30 214q14 1 26 1t23 -1 q102 -16 131 -178q12 -62 11 -138q0 -87 -15 -192q-51 -354 -176 -629.5t-406 -636.5q-194 -235 -248 -235h-4q-196 32 -292 536q-23 104 -23 271q0 45 2 96z" />
<glyph unicode="W" horiz-adv-x="2048" d="M119 698q0 117 164 281q137 139 331 252q184 110 269 110h2q29 0 71.5 -31.5t42.5 -45.5q0 -4 -100 -228q-102 -233 -117 -284l-18 -64q311 434 436 434q51 0 88 -45q31 -35 31 -61q0 -8 -10.5 -97.5t-10.5 -193.5q0 -135 35 -326q43 -227 101 -286q147 190 268 534 q111 338 115 658q1 22 1 42q0 155 -53 252q20 6 39 7q88 0 133 -125q35 -109 39 -271q-8 -260 -68.5 -519t-244.5 -587q-133 -227 -174 -227q-162 8 -309 399q-41 104 -58 275q-25 262 -26 276q-14 -18 -230 -317q-182 -256 -200 -256h-43q-88 0 -88 195q0 201 176 638 q-76 -16 -188.5 -107t-170.5 -177q-20 -31 -45 -109q-20 -68 -51 -100q-80 10 -104 27q-33 20 -33 77z" />
<glyph unicode="X" horiz-adv-x="1873" d="M61 -88q0 293 314 537q231 180 612 321l6 139q0 147 -59 254q-78 137 -232 137q-78 0 -153 -45q-92 -53 -92 -133q0 -61 49 -145q61 -113 67 -131q0 -29 -52 -29q-14 0 -32 2q-76 0 -145 135q-57 111 -57 168q0 168 133 262q113 80 258 80q150 0 274 -98 q139 -109 170 -283q45 74 119 126.5t131 52.5q113 0 246 -84q158 -100 158 -230q2 -127 -572 -272q-1 -19 -1 -37q0 -166 112 -332q137 -201 334 -201q8 0 35.5 2.5t39.5 2.5q66 0 74 -7v-34q-72 -88 -231 -88q-158 0 -301.5 129t-214.5 329q-460 -667 -860 -667h-1 q-61 0 -98 49q-31 41 -31 90zM256 25l10 -45q176 39 371 231q170 168 258 344q-123 -39 -344 -186q-295 -197 -295 -344zM1239 852q102 31 207 59q151 47 151 76q0 39 -79 72q-61 24 -96 24h-3q-72 0 -114 -65q-31 -45 -66 -166z" />
<glyph unicode="Y" horiz-adv-x="2291" d="M41 1489q37 37 74 37q90 0 117.5 -42t46.5 -138q51 -227 274 -508t571 -478q104 115 236 261l-219 753q-1 12 -1 23q0 195 294 313q240 98 462 98q154 0 283 -49q191 -71 191 -227q0 -104 -213 -344q-121 -137 -396 -404q-211 -209 -209 -229q0 1 -0.5 1t35.5 -132 q25 -90 25 -150v-16q-8 -88 -72 -115q-44 -17 -107 -17q-103 0 -257 46q-150 -152 -324 -417q-127 -193 -127 -319q0 -47 18 -85q6 -37 11 -45q31 -43 63 -90q-45 -49 -96 -50q-90 0 -141 101q-41 76 -41 166q-1 10 -1 22q0 225 478 787q-897 592 -975 1247zM1294 295 q70 -33 107 -33q33 0 39 6q14 16 14 49l-31 125q-59 -76 -129 -147zM1327 1374q0 -70 68 -323q37 -139 88 -312q215 215 438 447q283 295 279 379q0 57 -99 88q-69 22 -144 22h-7q-127 0 -338 -69q-285 -92 -285 -232z" />
<glyph unicode="Z" horiz-adv-x="2142" d="M-14 1466q0 76 221 154q180 70 299 80q45 4 102 6q8 0 17 1q207 0 577 -93q209 -59 418 -115q96 -27 264 -65q61 -10 123 -17q88 -16 115 -49q20 -24 32 -66q8 -28 7 -47q0 -10 -2 -18q-137 -47 -514 -270q-455 -264 -748 -500q-383 -307 -383 -485q0 -43 47 -43 q70 0 384.5 147t342.5 147h35q0 -2 10 -12t8 -24q-10 -66 -374 -254q-350 -178 -408 -179q-113 0 -187.5 68t-74.5 178q0 231 518 637q328 254 608 412q150 70 430 229l-823 215q-186 44 -351 44q-20 0 -40 -1q-70 0 -219 -39q-197 -53 -197 -127q0 -37 228 -391q4 -4 4 -10 q0 -16 -19.5 -30.5t-38.5 -14.5q-98 0 -262 242q-150 221 -149 290z" />
<glyph unicode="[" horiz-adv-x="907" d="M96 -49q0 -4 27 123q29 135 37 241q20 289 8 1203q0 66 65 79q11 2 111 2q438 -29 438 -104q0 -16 -21.5 -39.5t-31.5 -23.5q-313 23 -375 22l-22 -674q0 -18 -2 -102q-2 -127 -4 -299q-2 -61 -14 -199l-11 -139q125 -2 215 -8q217 -14 229 -41q6 -14 -18 -55 q-37 -10 -100 -31q-145 -14 -244 -15q-6 0 -102.5 -3t-104.5 -3q-16 0 -48 21.5t-32 44.5z" />
<glyph unicode="\" horiz-adv-x="876" d="M41 1690q-6 35 35 67q35 29 63 33q8 2 38 -5t36 -22q106 -322 147 -467q174 -502 279 -766q180 -528 199 -636q2 -23 2 -39q0 -86 -74 -99q-25 -4 -66 29q-53 205 -86 293q-59 174 -92 276q-297 830 -481 1336z" />
<glyph unicode="]" horiz-adv-x="1038" d="M113 -27q0 16 14 33q10 4 39 4q51 0 199 -16q165 -21 206 -23q33 315 95 852q63 530 65 639v49q4 0 -78 0l-405 -47q-37 0 -62 43q-18 31 -18 52q0 31 25.5 55t54.5 24l565 19q35 0 74 -17q49 -23 49 -59q0 14 -86 -643q-86 -647 -80 -745q-4 -115 -4 -308 q2 -16 -23.5 -40.5t-50.5 -24.5q-10 0 -236.5 32.5t-240.5 35.5t-47 22q-55 31 -55 63z" />
<glyph unicode="^" horiz-adv-x="978" d="M92 1221q4 49 236 176q223 121 262 116q55 -4 90 -32q76 -86 238 -254q28 -23 24 -60q-4 -39 -31.5 -60.5t-56.5 -41.5q-45 37 -178 158q-106 96 -117 98q-41 4 -200.5 -98.5t-157.5 -102.5q-31 4 -71 42t-38 59z" />
<glyph unicode="_" horiz-adv-x="1447" d="M109 -143q0 39 35.5 72.5t72.5 33.5q8 0 17.5 -6t17.5 -6q106 16 213 35l463 24q51 2 192 -10q133 -12 160 -18q43 -13 68 -33q8 -35 -9 -45q-109 -16 -137 -17q-238 8 -602 -49l-379 -61q-31 0 -71.5 28.5t-40.5 51.5z" />
<glyph unicode="`" horiz-adv-x="747" d="M66 1257q0 86 86 105q74 16 299 -152q170 -123 249 -204l9 -37q-10 -6 -41 -17q-57 -12 -323.5 110t-274.5 157q-4 20 -4 38z" />
<glyph unicode="a" horiz-adv-x="1001" d="M66 160q0 125 141 303q127 156 299 279.5t266 123.5q59 0 108.5 -49t49.5 -108q0 -8 -20.5 -91t-20.5 -94q0 -8 20.5 -36.5t20.5 -43.5q0 -35 -67.5 -124t-67.5 -111q6 -70 63 -107q78 -51 94 -82q-68 -49 -94 -49q-53 0 -135 47.5t-80 47.5q-51 -41 -92 -68 q-106 -68 -182 -76q-303 0 -303 238zM246 115q0 -25 35 -43q29 -14 55 -15q109 0 252 136q0 10 -4 35.5t-4 43.5q0 55 28 134q27 70 58 96q14 12 45 20q18 7 20 27q5 37 5 64q0 42 -13 57q-2 2 -10 2q-68 0 -260 -207q-207 -221 -207 -350z" />
<glyph unicode="b" horiz-adv-x="868" d="M102 301q25 86 60 299l10 262q-2 217 -14 651q23 32 81 32q9 0 19 -1q33 -2 63.5 -46t32.5 -75v-15q0 -107 -22 -572q98 84 173 84h7q154 -12 238 -175q62 -116 62 -231q0 -15 -1 -29q-8 -102 -31 -172q-27 -82 -108 -178q-185 -215 -404 -215h-20q-29 2 -75 45 q-42 40 -42 74v6q2 35 35 88q20 33 41 66l-12 12q-12 4 -54 -12q-39 25 -39 90v12zM252 211q14 -45 49 -100h14q117 1 228 123q117 130 123 290v8q0 63 -31 138q-39 96 -98 106q-98 -39 -156 -153q-35 -70 -70 -218.5t-59 -193.5z" />
<glyph unicode="c" horiz-adv-x="851" d="M59 395q0 182 121 348q139 186 338 187q111 0 193 -68.5t82 -167.5q0 -61 -54.5 -122.5t-103.5 -61.5q-18 0 -33.5 21.5t-15.5 31.5q0 6 21.5 42t21.5 83q0 84 -86 84q-143 0 -244 -174q-63 -137 -63 -256q0 -117 63 -191.5t172 -74.5q76 0 182 28q33 4 33 -12t-22 -51 q-114 -100 -218 -100q-166 0 -282 151q-104 137 -105 303z" />
<glyph unicode="d" horiz-adv-x="1249" d="M55 215q-1 6 -1 11q0 107 173 337q154 166 232 209q137 94 293 111q22 2 40 2q112 0 117 -72q1 -4 1 -9q0 -30 -24 -50q-28 -24 -52 -25q-8 -2 -27 4t-27 6q-164 -10 -401 -239q-150 -173 -150 -264q0 -15 4 -27l31 -4q127 18 348 223q182 168 312 344q96 111 125 289 q0 4 63 590q39 35 72 37h9q66 0 116 -86q41 -70 45 -136q1 -11 1 -23q0 -87 -50 -231q-57 -143 -115 -288q-16 -39 -68 -226q-57 -209 -78 -313q-47 -227 -63 -440q-12 -178 -27 -201q-115 29 -129 180q-2 29 -2 64q0 182 84 522l-2 18q-94 -106 -190 -213 q-137 -141 -269 -211q-47 -33 -145 -59q-65 -14 -98 -14h-8q-63 2 -103 63q-31 49 -37 121z" />
<glyph unicode="e" horiz-adv-x="845" d="M59 348q0 180 129 357q144 200 342 200h2q92 0 150 -76q47 -63 47 -144v-13q-4 -119 -92 -283q-72 -141 -238 -164q-43 -9 -89 -9q-15 0 -31 1q14 -57 71.5 -93t130.5 -36q78 0 173.5 47t93.5 47q31 0 38 -16q4 -25 -51 -80q-45 -49 -117.5 -80t-134.5 -39q-17 -1 -35 -1 q-58 0 -126 14q-89 20 -179 131q-84 116 -84 237zM244 383q26 -5 59 -5q25 0 55 3q106 6 162 156q39 104 39 190q0 14 -22 23h-6q-65 0 -171 -120q-110 -126 -114 -208z" />
<glyph unicode="f" horiz-adv-x="798" d="M-61 516v7q0 77 178 120q100 20 178 37q14 551 24 676q14 336 87 360q19 7 38 7q83 0 181 -126q98 -133 123.5 -252.5t25.5 -197.5q1 -17 1 -32q0 -147 -70 -171q-23 -8 -40 -8q-33 0 -40 31v6q0 15 5 65q2 15 2 33q0 67 -20 189q-12 63 -34 112q-31 80 -62 80h-4 q-27 -117 -33 -387q-8 -227 -8 -356q90 6 139 6q205 0 205 -31q0 -4 -2 -6q-14 -49 -84 -80q-12 -6 -134 -34.5t-136 -31.5q-4 -23 -19 -403q-14 -395 -28.5 -585.5t-96.5 -217.5q-7 -2 -13 -2q-39 0 -60 68l-6 65q20 117 28 261.5t15.5 332t7.5 447.5q-10 0 -122 -36 t-122 -38h-2q-38 0 -102 92z" />
<glyph unicode="g" horiz-adv-x="1265" d="M-367 -1059q0 145 37 285q14 59 66 194q19 12 32 12q29 0 29 -61q0 -47 -16.5 -146t-16.5 -130q0 -375 189 -375q172 0 424 219q201 186 299 344q133 174 287 629q53 176 67 360q2 18 2 54q0 152 -37 272q-61 154 -192 154q-35 0 -62 -15q1 -13 1 -26q0 -195 -166 -425 q-177 -247 -324 -247q-166 0 -166 209q0 203 137 352q-63 129 -63 244q0 143 94 237q83 84 192 84q193 0 259 -194q6 -29 16 -74q42 5 71.5 5t45.5 -5q231 -39 309 -235q45 -115 45 -343q0 -180 -82 -466q-88 -274 -164 -426q-121 -264 -403 -560q-323 -292 -561 -292h-2 q-164 0 -255.5 101t-91.5 265zM262 244l17 -19q68 14 186.5 186.5t116.5 268.5q-98 -33 -209 -168q-116 -125 -116 -227q0 -21 5 -41zM309 797q0 -18 25 -84q63 57 133 102q70 43 117 53q-25 147 -109 152q-66 0 -118 -68q-48 -62 -48 -143v-12z" />
<glyph unicode="h" horiz-adv-x="925" d="M61 20q0 4 41 166q45 176 58 250q102 627 102 987q0 137 -13 230.5t-13 95.5q0 31 22.5 52.5t50.5 21.5q68 0 103 -62q6 -8 14 -150.5t8 -199.5q0 -127 -45 -561q-37 -301 -61 -412q51 78 184 215q162 172 213 172q100 0 100 -149q0 -43 -9 -126t-9 -112q-1 -29 -1 -57 q0 -144 34 -254q8 -20 102 -195q2 -4 2 -8q0 -14 -18 -37h-4q-30 0 -82 27q-56 29 -64 45q-80 53 -133 262q-21 163 -21 263q0 26 1 48q-37 -20 -115 -114q-55 -68 -114.5 -138.5t-90.5 -125.5q-29 -61 -57 -125q-45 -88 -90 -88q-31 0 -63 25.5t-32 53.5z" />
<glyph unicode="i" horiz-adv-x="438" d="M90 262q0 94 25 250q12 55 24 168q20 29 59 29q11 0 23 -2q16 0 58.5 -27t42.5 -49v1q-2 0 -32 -161q-32 -170 -32 -285q0 -150 55 -200q11 -12 11 -27q0 -16 -13 -35h-53q-104 29 -147 156q-20 82 -21 182zM281 1192q0 37 94 70q75 28 116 28h3q138 0 163 -41 q-4 -16 -9 -32.5t-32 -42.5q-33 -10 -131 -54q-86 -37 -92 -37q-41 0 -76.5 34t-35.5 75z" />
<glyph unicode="j" horiz-adv-x="538" d="M-586 -1436q133 6 292 99.5t259 222.5q74 100 131.5 272t83.5 508l17 324l14 342l14 373q4 25 38 44t42 19q53 -2 84 -53q23 -38 23 -79v-7q-8 -80 -17 -162q-16 -195 -35 -537l-28 -360q-39 -311 -82 -438t-86 -211q-25 -47 -74 -111q-59 -80 -174 -151 q-51 -33 -137 -72q-127 -56 -246 -70h-86q-40 11 -40 30q0 8 7 17zM281 1237q0 53 65 86q53 27 105 27q104 0 104 -45q0 -20 -73.5 -84t-94.5 -64q-6 0 -14 3t-19 3q-20 0 -46.5 23.5t-26.5 50.5z" />
<glyph unicode="k" horiz-adv-x="956" d="M94 86l51 608q0 -8 9.5 148.5t9.5 374.5q0 29 -6 119.5t-6 95.5q0 118 50 118h1q125 0 125 -118v-224q0 -123 -19 -374q-18 -260 -20 -293l-6 -97q39 84 245 277q199 182 232 182q98 0 110 -43q-18 -66 -213 -295q-184 -219 -184 -266q0 -96 238 -195q137 -51 274 -100 v-6q0 -19 -12 -21q-86 -16 -103 -16q-18 2 -137 6q-96 12 -224 86t-134 94q-33 -57 -68 -116q-49 -76 -125 -80q-88 0 -88 135zM264 252q4 0 9.5 -5t7.5 -5q8 2 14 11t8 9l-4 12q-1 -10 -13 33q-8 28 -8 72q0 25 3 55q-17 -78 -17 -140v-7v-35z" />
<glyph unicode="l" horiz-adv-x="581" d="M106 33q0 504 285 1739q10 47 84 47q29 0 53.5 -19.5t24.5 -52.5q0 10 -72 -317q-82 -375 -133 -668q-72 -410 -72 -598v-119q27 -12 43 -12q4 0 110 58.5t142 68.5l19 -19q-2 -59 -145.5 -180t-229.5 -121q-109 0 -109 193z" />
<glyph unicode="m" horiz-adv-x="1601" d="M61 55q-2 29 78 365q16 115 33 229q16 102 82 129h5q35 0 61 -26q28 -28 30 -56q0 -10 -15.5 -101t-15.5 -99l-4 -35q90 78 181 155q125 100 241 105h3q76 0 122 -90q43 -82 43 -185q0 -27 -2 -49q16 18 33 39q35 37 74 37q57 0 123 -117q98 -168 135 -211 q96 -108 229 -108h12q70 4 185 26q33 2 41 -26l-13 -33q-117 -96 -338 -100q-147 23 -264 153q-26 31 -110 162q-6 4 -19 -12q-94 -133 -96 -137q-68 -90 -86 -93q-35 0 -84 37t-51 76q0 8 25.5 184.5t25.5 184.5q-2 80 -26 80h-1q-125 -4 -329 -301q-94 -147 -187 -295 q-8 2 -32 6h-3q-32 0 -61 47q-25 41 -25 59z" />
<glyph unicode="n" horiz-adv-x="1028" d="M74 221l36 181q30 148 30 202q0 12 -1 19q12 14 26.5 31.5t59.5 21.5h10q34 0 63 -24q34 -28 38 -64q2 -25 -2 -45q-10 -39 -12 -62q113 111 223 219q158 150 246 158q8 1 16 0q57 0 93 -38q42 -44 46 -109q1 -14 1 -30q1 -103 -55 -291q-61 -205 -61 -271v-8 q6 -74 29 -121q-10 -35 -47 -35q-18 0 -41 8q-33 12 -78 80q-21 45 -21 111q0 39 7 84q76 288 76 388q0 39 -11 50h-2q-37 0 -266 -260q-246 -279 -272 -287q-14 -4 -45 -12h-3q-33 0 -61 47q-20 35 -22 57z" />
<glyph unicode="o" d="M68 250q0 233 178 465.5t362 232.5q70 0 127 -39q62 -43 62 -109v-12q-36 -36 -59 -36h-1q-8 0 -44 17t-44 17q-152 0 -291 -204q-122 -181 -122 -321v-11q2 -53 20 -111q25 -72 61 -84q31 -12 45 -12q135 0 236 154q86 129 86 235q0 102 -31 109q-4 4 -8 4 q-43 0 -86 -92q-12 -37 -22 -74q-23 -55 -60 -55q-29 0 -47 63q-12 45 -12 84q0 100 82 176q78 70 168 70q88 0 145 -92q45 -76 45 -160q0 -111 -39 -201q-94 -190 -206.5 -272t-286.5 -82q-117 6 -195 135q-63 106 -63 205z" />
<glyph unicode="p" horiz-adv-x="1089" d="M78 651q0 80 22 123q8 12 93 39q12 31 22 61q25 43 66 44q31 0 77 -23q57 -29 58 -70q0 -18 -15 -41q188 -57 383 -196q236 -170 236 -316q0 -115 -139 -184q-111 -57 -215 -57q-6 0 -42 -3q-11 -1 -22 -1q-26 0 -53 5q-39 7 -88 43t-49 77q0 68 61 149q59 76 115 90 l51 12h10q59 0 66 -47q-29 -27 -68 -73q-45 -55 -55 -82t31 -23l26 2q43 0 109 23q92 33 92 88q0 94 -209 227q-181 118 -250 118q-5 0 -10 -1q-16 -29 -16 -227q0 -494 104 -1012q-6 -14 -38.5 -31.5t-55.5 -17.5q-76 0 -88 53q-39 180 -72 453.5t-41 308.5 q-29 131 -59 264q-37 170 -37 225z" />
<glyph unicode="q" horiz-adv-x="1034" d="M68 117q-2 135 196 368q129 154 285 287q100 85 152 85q6 0 12 -1l32 100q23 68 72 68q45 0 92 -43q6 -28 6 -78v-26q39 -8 60 -21q29 -14 29 -45q2 -10 2 -19q0 -29 -25 -47l-55 -22q-25 0 -72 -178q-41 -160 -41 -185l-12 -630q0 -184 20 -351q14 -117 39 -221 q20 -90 21 -88q0 -102 -86 -102q-68 0 -84 61q-18 76 -37 301q-16 207 -17 330v430v35q2 37 2 76q-258 -258 -391 -258q-66 0 -132 59t-68 115zM238 123q0 -14 8 -23h41q84 0 231 174q140 164 156 252q14 55 14 99q0 25 -6 41h-2q-36 0 -231 -215q-211 -233 -211 -328z" />
<glyph unicode="r" horiz-adv-x="784" d="M82 758q17 39 61 39q28 0 66 -15q20 31 129 68q71 29 214 29h19q90 -10 158 -62.5t68 -171.5l-11 -35q-20 -32 -39 -32q-25 0 -47 56q-38 98 -165 109q-8 1 -16 1q-113 0 -202 -134q-45 -61 -57 -270l8 -336q-2 -28 -30 -54q-25 -22 -53 -23q-4 0 -9 1q-92 6 -92 252 q0 37 2 88q4 45 4 54l-6 335q-2 53 -2 101z" />
<glyph unicode="s" horiz-adv-x="833" d="M35 -6q0 76 74.5 177t154.5 101q49 0 84 -28q-126 -126 -126 -195q0 -6 1 -12q10 -20 49 -19q66 0 156 50q106 57 107 127q0 66 -70 176q-117 188 -127 209q-70 135 -70 258q-2 206 228 206h2q96 0 186 -40q123 -54 123 -154q0 -31 -14 -55q-36 -37 -67 -37q-39 0 -71 59 q2 9 2 18q0 55 -90 76q-139 -8 -139 -104q0 -117 133 -319.5t133 -331.5q0 -131 -149 -228q-127 -82 -254 -90l-74 2q-59 6 -115 39q-68 41 -67 115z" />
<glyph unicode="t" horiz-adv-x="1040" d="M55 639q-2 11 -2 22q0 105 156 179q102 49 211 67q14 2 125 29q25 195 57 395q66 348 123 357h8l74 -33q35 -31 39 -60q2 -4 -84 -325q-31 -133 -57 -332q20 2 52 2q48 0 122 -4q4 0 100 -18.5t158 -69.5q-2 0 -7.5 -9.5t-13.5 -9.5q-293 -2 -356 -12q-37 -2 -70 -10 q-39 -301 -72 -965q-6 0 -30 -4q-10 0 -25 6q-4 0 -8 2q-123 176 -246 351q-240 350 -254 442zM233 596q6 -41 113 -213q100 -156 141 -207l41 606q-296 -70 -296 -174q0 -6 1 -12z" />
<glyph unicode="u" horiz-adv-x="1126" d="M53 219q0 100 47 281q61 237 149 237h1q90 0 90 -110q0 -6 -59.5 -143.5t-59.5 -202.5l4 -43q39 2 152 67q238 141 393 264q37 61 76 125q84 123 135 123q37 0 73 -32t36 -48q0 -29 -62 -116q-82 -115 -115 -185q-63 -127 -63 -252l4 -112q19 -64 19 -95q-1 -19 -7 -26 q-18 -19 -59 -19h-6q-53 0 -92 72q-27 55 -31 123q-5 31 -5 65q0 69 19 152v18q-106 -84 -215 -167q-184 -135 -260 -136q-70 0 -117 49.5t-47 110.5z" />
<glyph unicode="v" d="M70 659q-1 8 -1 14q0 37 19 52q14 10 41 14q11 1 20 1q44 0 65 -22q26 -28 36 -104q10 -98 49 -260q41 -131 96 -217q16 2 135 152q78 102 117 171.5t74 160.5q23 72 29 97t14 48q22 19 46 19q32 0 69 -31q12 -32 12 -67q0 -24 -6 -50q0 -10 -19 -72q-23 -63 -30 -78 q-98 -213 -235.5 -392t-172.5 -183h-9q-140 0 -265 354q-72 258 -84 393z" />
<glyph unicode="w" horiz-adv-x="1280" d="M51 99q0 30 21 104q14 53 30 106q10 43 66 191q68 178 88 180h7q34 0 70 -18q38 -19 38 -51v-3q0 -16 -64 -260q121 121 254 244q14 4 27 4q76 0 92 -139q10 -133 22 -264q25 -145 117 -158q5 -1 11 -1q92 0 167 197q66 174 66 373q-10 113 -66 166q-31 23 -63 45 q4 27 35 35q20 4 43 6q9 1 17 1l77 -28q23 -23 47 -45q62 -69 70 -182q2 -24 2 -49q0 -162 -68 -365q-106 -319 -315 -333q-8 -1 -15 -1q-132 0 -239 166q-57 119 -58 308q-115 -113 -190 -189q-137 -133 -178 -135h-4q-30 0 -66 31q-41 35 -41 64z" />
<glyph unicode="x" horiz-adv-x="1357" d="M37 117q0 70 100 153q78 66 187 123q93 44 93 50q0 1 -1 1l-19 43q-23 39 -52.5 63.5t-65.5 47.5q-70 45 -70 76q0 16 20.5 47t42.5 31q70 0 183 -99q98 -111 108 -157q47 23 135 65q23 33 142 156q76 70 185.5 123t180.5 53q59 0 95 -29.5t36 -66.5q0 -18 -17 -47 t-30 -25h-14q-55 -8 -115 -27q-109 -45 -204 -118.5t-146 -206.5q-43 -115 -43 -232q0 -74 27 -127q35 -69 100 -69h2q6 0 50 7t54 7q45 0 64 -16q-10 -45 -57 -80q-47 -41 -131 -53q-145 0 -224 155q-55 113 -55 238q0 20 10 86q14 82 45 151l-57 -30q3 -20 3 -40 q0 -64 -28 -139q-55 -139 -192 -221q-101 -43 -159 -43h-5q-90 8 -134 48t-44 102zM215 139q0 -6 4 -10h19q41 0 96 36t84 83q18 49 22 90q-45 -23 -125 -80q-100 -78 -100 -119z" />
<glyph unicode="y" horiz-adv-x="1148" d="M100 0q-2 23 86 518q45 219 64 221q24 24 49 24q14 0 28 -7q40 -21 48 -68l-49 -256q-45 -233 -45 -293v-10q57 8 239 172q172 158 182 191q61 186 125 372q80 221 146 312q48 37 84 37q75 0 100 -160q0 -190 -268 -527q0 6 -29 -45t-41 -86q-268 -922 -377 -1491 q-49 -223 -67 -426q-8 -23 -35 -55q-41 -26 -65 -26h-1q-24 1 -47 42q-4 4 -9 26t-5 52q0 236 197 940q74 246 204 750q-111 -125 -280 -230q-106 -51 -139 -57q-61 2 -75 26.5t-20 53.5z" />
<glyph unicode="z" horiz-adv-x="1028" d="M27 739q0 106 206 168q121 37 250 45q47 4 111 4q428 0 428 -122q0 -84 -205 -304q-115 -113 -229 -225q-162 -184 -158 -219h492q0 -2 5 -10t5 -21q-70 -61 -365 -123q-161 -28 -321 -57q-27 0 -70 34t-43 60q0 94 338 457q256 231 358 371l-8 22q-27 18 -157 19 q-100 0 -205 -17q-53 -8 -123 -35q-86 -35 -86 -69q49 -74 49 -78q3 -4 3 -10q0 -19 -28 -54h-34q-27 6 -120 74t-93 90z" />
<glyph unicode="{" horiz-adv-x="960" d="M80 -25q0 135 80 261q47 72 151 178q82 82 82 108q0 31 -71 64q-88 39 -92.5 45t-4.5 35q0 51 27 63t55 25q43 31 74 123q27 82 27 149q0 63 -25 174q-2 6 -86 240q-80 215 -80 264q0 84 62 133q55 47 137 47q74 0 108 -33v-32q-135 -43 -135 -115q0 -14 4 -33 q168 -510 168 -674q0 -70 -37 -172q-29 -80 -51 -112q37 -27 74 -51q68 -49 65 -103q-4 -70 -98 -176q-86 -96 -170 -193q-88 -117 -82 -215q6 -102 144 -172q96 -49 258 -82q84 -14 167 -30q-9 -47 -253 -47q-158 0 -293 57q-205 88 -205 274z" />
<glyph unicode="|" horiz-adv-x="636" d="M168 -66q-6 76 16 322q35 528 113 1501q2 10 23.5 23.5t33.5 13.5q33 2 75 -19.5t44 -52.5q-2 12 -74 -905q-18 -197 -37 -391q-25 -258 -24 -416q0 -94 8 -166q-14 -18 -27 -37q-18 -20 -51 -18q-90 10 -100 145z" />
<glyph unicode="}" horiz-adv-x="913" d="M127 850q0 49 27 70q49 23 98 45q100 47 172 161q66 102 65 183q0 119 -94 266q-23 39 -112 104q-74 57 -74 82q0 74 96 74q166 0 266 -215q76 -160 76 -297q0 -270 -280 -473q49 -35 161 -80q63 -23 64 -78q0 -35 -17 -55q-61 -31 -122 -64q-113 -66 -113 -135 q0 -68 127 -143q231 -135 238 -139q129 -96 129 -217q0 -223 -394 -484h-30q-8 8 -9 23q0 2 133.5 183t133.5 267q0 68 -156 162q-113 66 -225 131q-133 94 -133 207q0 137 172 252q-57 33 -113 65q-86 53 -86 105z" />
<glyph unicode="~" horiz-adv-x="993" d="M37 1104q0 43 49 84q41 37 74 41t59 4q117 0 252 -88t217 -94q68 -4 174 123q80 -13 94 -103q-4 -61 -73 -127q-76 -70 -166 -70q-109 0 -244 86.5t-182 86.5q-16 0 -31 -5q-6 -2 -42 -18t-48 -16q-41 0 -78 20q-55 37 -55 76z" />
<glyph unicode="&#xa1;" horiz-adv-x="729" d="M159 95q0 131 93 428q55 164 110 329q12 14 43 23.5t35 11.5q23 -4 29 -47q0 -31 -10 -127q-20 -117 -80 -424q-14 -70 -15 -280q-29 -25 -75 -52q-49 -8 -89 27q-31 29 -36 68q-4 18 -5 43zM432 1430q0 27 30.5 63.5t55.5 36.5h39q29 0 67 -49q37 -43 37 -57 q0 -47 -45 -76q-37 -25 -76 -25q-45 0 -76.5 36t-31.5 71z" />
<glyph unicode="&#xa2;" horiz-adv-x="1140" d="M92 330q0 223 225.5 484t427.5 284q31 63 54 188q10 63 67 64q45 0 77 -32t32 -69q0 -10 -31 -100t-31 -98q25 -18 62 -78q0 4 0 -103q0 -27 -19.5 -57.5t-50.5 -30.5q-27 0 -26 0q-57 27 -74 76q-12 37 -23 74l-32 4q-53 0 -181 -119q-94 -88 -139 -141 q-53 -68 -96 -166q-49 -111 -49 -184q0 -80 57 -134.5t127 -54.5q100 0 223 76q55 33 191 139q96 76 129 76q47 0 47 -41q0 -68 -139 -203q-72 -66 -144 -129q-35 -123 -69 -248q-66 -207 -115 -206q-78 0 -78 127q0 102 39 243l-12 13q-80 -14 -115 -15q-127 0 -230.5 117 t-103.5 244z" />
<glyph unicode="&#xa3;" horiz-adv-x="1296" d="M84 584q0 59 129 114l156 54q35 98 69 198q86 225 174 361q127 195 248 192q111 -4 215 -78q121 -84 121 -202q0 -31 -21.5 -55.5t-44.5 -24.5q-20 0 -49 49q-41 66 -63 88q-47 47 -111 47q-96 0 -209 -217q-96 -184 -98 -246l-29 -90q80 4 144 4q172 0 235 -28 q29 -12 62 -58q-16 -39 -207 -57q-219 -20 -281 -53q-23 -106 -45 -213q-27 -115 -80 -228q2 -23 13 -22q10 0 61 4t62 4q193 0 411 -35q232 -37 285 -82q-12 -29 -67.5 -56.5t-119.5 -27.5q-100 0 -141 8l-438 9q-10 0 -91 -8.5t-93 -8.5q-162 0 -162 82q0 10 47 96 q51 96 63 134q66 180 86 297q-23 -2 -72.5 -18.5t-60.5 -16.5q-49 0 -78 30q-20 23 -20 54z" />
<glyph unicode="&#xa4;" horiz-adv-x="1445" />
<glyph unicode="&#xa5;" horiz-adv-x="1376" d="M125 1464q0 139 92 140q25 0 66 -26t41 -46q2 -90 22 -287q25 -131 90 -297q104 -266 211 -266q55 0 168 170q76 115 115 195q18 35 143 352q106 268 131 289q6 4 10 4q6 0 15.5 -7.5t10.5 -8.5t6 -16.5t5 -27.5q0 -205 -139 -561q-133 -342 -235 -432q18 0 67 5t60 5 q39 0 90 -12q70 -16 69 -43q0 -41 -168 -86q-96 -23 -192 -43q0 -57 -2 -109q8 0 80 -2h80q100 0 143 -45v-30q-49 -35 -184 -68q-117 -31 -117 -39q-6 -86 -12 -170q-8 -104 -70 -147q-92 55 -111 290q-10 0 -79.5 -10t-79.5 -10q-47 0 -89.5 31.5t-42.5 66.5q0 84 113 101 q78 6 154 12v24q0 29 -15 68q-10 0 -134 -24.5t-136 -24.5q-10 0 -37 14q-39 23 -53 31q-20 16 -18 88q51 49 118.5 60.5t134.5 21.5q-152 145 -241 407q-80 238 -80 463z" />
<glyph unicode="&#xa8;" horiz-adv-x="892" d="M121 1944q8 37 54 62.5t81 18.5q109 -24 82 -143q-8 -39 -48 -62.5t-77 -15.5q-41 8 -71.5 50t-20.5 90zM580 1878q8 35 50 62.5t87 17.5q98 -23 78 -113q-23 -98 -158 -65q-25 4 -43.5 41t-13.5 57z" />
<glyph unicode="&#xa9;" horiz-adv-x="1810" d="M98 612q0 195 129 465q141 289 351 477q244 219 505 220q82 0 166 -43q106 -53 133 -144q10 -33 4 -74q-8 -61 -8 -67q201 -78 303 -256q88 -148 88 -324q0 -385 -306 -691t-709 -331q-18 -2 -70 2q-57 4 -63 4q-16 0 -64 17q-53 20 -84 41q-213 143 -301 332 q-74 158 -74 372zM297 567q0 -186 96 -354q125 -219 344 -219q313 0 572 268q268 277 268 633q0 211 -152 338q-137 117 -333 117q-100 0 -197 -41q-61 -27 -133 -76q-59 -41 -70 -41q-29 0 -28 29q0 135 202 219q145 59 246 59h131v29q-45 88 -135 88q-193 0 -391 -180 q-178 -164 -299 -412t-121 -457zM528 635q0 182 121 348q139 186 338 186q111 0 193 -68.5t82 -166.5q0 -61 -54.5 -122.5t-103.5 -61.5q-18 0 -33.5 21.5t-15.5 31.5q0 6 21.5 42t21.5 83q0 84 -86 84q-143 0 -236 -174q-72 -137 -71 -256q0 -117 63 -192t172 -75 q76 0 182 29q33 4 33 -12t-22 -51q-114 -101 -218 -101q-166 0 -282 152q-104 137 -105 303z" />
<glyph unicode="&#xab;" horiz-adv-x="1171" d="M57 444q0 39 148 193q82 84 166 168q43 51 84 102q63 70 94 70q39 0 67.5 -25.5t28.5 -48.5q0 -51 -182 -233.5t-182 -202.5q0 -27 163 -141q103 -70 207 -138q-14 0 -20 -6q14 -27 12 -41q-6 -2 -26.5 -14t-30.5 -12h-27q6 0 -43 20l-22 -6q-436 229 -437 315zM481 444 q0 39 148 193q82 84 166 168q43 51 84 102q63 70 94 70q39 0 67.5 -25.5t28.5 -48.5q0 -51 -182 -233.5t-182 -202.5q0 -27 163 -141q103 -70 207 -138q-14 0 -20 -6q14 -27 12 -41q-6 -2 -26.5 -14t-30.5 -12h-27q6 0 -43 20l-22 -6q-436 229 -437 315z" />
<glyph unicode="&#xad;" horiz-adv-x="1193" d="M133 641q0 31 19.5 57.5t40.5 28.5q178 18 356 39q203 18 350 18q74 0 143 -4q16 -10 33 -21t12 -36q-2 -27 -37.5 -35t-72.5 -14q-604 -135 -664 -135q-8 0 -27.5 -4.5t-27.5 -4.5q-41 0 -80 29q-45 33 -45 82z" />
<glyph unicode="&#xb0;" horiz-adv-x="700" d="M68 997q0 86 53 189q70 135 182 135q23 0 39 -14q23 -20 27 -21q16 20 114 21q53 0 106.5 -51.5t53.5 -104.5q0 -129 -100 -246q-109 -125 -248 -125q-90 0 -158.5 60.5t-68.5 156.5zM238 1022q0 -86 51 -86q57 0 127.5 69t70.5 128q0 68 -81 67q-72 0 -123 -65 q-45 -57 -45 -113z" />
<glyph unicode="&#xb1;" horiz-adv-x="1144" d="M96 748q0 55 172 98q109 23 219 47q2 31 -2 80q-6 61 -6 78q0 96 117 96q66 0 78 -98l12 -140q49 2 168 13q104 10 113 10q55 0 77 -31v-43q-47 -45 -172 -67q-158 -29 -190 -43q0 -2 2 -48.5t2 -83.5q0 -270 -96 -270q-35 0 -47 12q-18 18 -29 88q-10 49 -12 132 q-2 106 -4 135q-6 4 -27 4l-274 -74q-100 25 -101 105zM164 57q0 72 334 107q199 20 346 20q121 0 164 -32v-23q0 -16 -37 -33q-27 -12 -56 -22l-639 -127q-10 -4 -22 -4q-33 0 -64 47q-27 41 -26 67z" />
<glyph unicode="&#xb4;" horiz-adv-x="612" d="M154 1190q-8 6 0 31l24 30q8 10 135 90q188 117 320 144q33 -25 42 -74t-20 -84q-20 -27 -67 -31q-63 -4 -90 -14q-265 -103 -308 -113q-29 12 -36 21z" />
<glyph unicode="&#xb8;" horiz-adv-x="571" d="M51 -403q-12 26 21 51q16 4 67 43q61 49 70 84q4 23 -19 112q-23 98 -22 125q2 184 86 185q33 0 65.5 -18.5t32.5 -47.5q0 -8 -13 -54t-13 -54q0 -29 16 -105t16 -113q0 -39 -36 -110q-51 -92 -125 -121q-27 -12 -74 -4t-72 27z" />
<glyph unicode="&#xbb;" horiz-adv-x="1228" d="M80 166q0 39 220 180t220 164q0 20 -164 160q-156 129 -196 155q-47 68 -47 103q0 10 34.5 37.5t51.5 27.5q29 0 286.5 -232t257.5 -263q0 -51 -272 -242q-262 -182 -295 -182q-25 0 -60.5 35.5t-35.5 56.5zM512 166q0 39 220 180t220 164q0 20 -164 160 q-156 129 -196 155q-47 68 -47 103q0 10 34.5 37.5t51.5 27.5q29 0 287 -232t258 -263q0 -51 -273 -242q-262 -182 -295 -182q-25 0 -60.5 35.5t-35.5 56.5z" />
<glyph unicode="&#xbf;" horiz-adv-x="1105" d="M176 250q-12 115 51 222.5t215 238.5q74 61 156 145q141 143 137 191l-2 14q-2 10 -25 16q-33 8 -45 15q4 23 8 47q10 27 56 43q6 2 57 8q49 6 100 -65q43 -57 47 -97q6 -70 -81 -172q-68 -68 -136 -135q-127 -119 -254 -235q-145 -145 -133 -250q6 -74 123 -111 q94 -31 160 -20q53 8 122.5 46t80.5 70q6 20 -11 64q-18 53 -18 76q0 37 33 63q14 4 28 4q68 0 131 -69q53 -61 60 -113q12 -111 -158 -207q-129 -74 -227 -86q-29 -4 -60 -4q-156 0 -279.5 87t-135.5 214zM655 1641q-4 39 28.5 70.5t57.5 35.5q41 4 91 -29.5t54 -68.5 q10 -106 -163 -135q-58 27 -68 127z" />
<glyph unicode="&#xc0;" horiz-adv-x="1384" d="M59 16q0 240 254 684q109 211 377 560q92 121 232 272q164 180 198 180q164 0 148 -223q-8 -104 -21 -371q-2 -68 -10 -233q-4 -115 -4 -172l2 -402q63 -69 98 -184q25 -82 25 -186q0 -51 -64 -54q-53 -4 -130 114t-87 216q-31 45 -69 80q-88 82 -187 90q-4 0 -25.5 -49 t-60.5 -49q-35 2 -67 90q-25 70 -27 106q-4 72 72 72q86 0 190.5 -32.5t153.5 -71.5l24 735q0 27 2 123q4 82 4 127l-63 -41q-387 -408 -641 -914q-59 -121 -88 -227q-18 -92 -37 -184q-35 -150 -72 -150h-45q-25 0 -53.5 37t-28.5 57zM375 2136q0 86 86 105q74 16 299 -152 q170 -123 249 -204l9 -37q-10 -6 -41 -17q-57 -12 -323.5 110t-274.5 157q-4 20 -4 38z" />
<glyph unicode="&#xc1;" horiz-adv-x="1374" d="M59 16q0 240 254 684q109 211 377 560q92 121 232 272q164 180 198 180q164 0 148 -223q-8 -104 -21 -371q-2 -68 -10 -233q-4 -115 -4 -172l2 -402q63 -69 98 -184q25 -82 25 -186q0 -51 -64 -54q-53 -4 -130 114t-87 216q-31 45 -69 80q-88 82 -187 90q-4 0 -25.5 -49 t-60.5 -49q-35 2 -67 90q-25 70 -27 106q-4 72 72 72q86 0 190.5 -32.5t153.5 -71.5l24 735q0 27 2 123q4 82 4 127l-63 -41q-387 -408 -641 -914q-59 -121 -88 -227q-18 -92 -37 -184q-35 -150 -72 -150h-45q-25 0 -53.5 37t-28.5 57zM1366 1956q-8 6 0 31l24 30 q8 10 135 90q188 117 320 144q33 -25 42 -74t-20 -84q-20 -27 -67 -31q-63 -4 -90 -14q-265 -103 -308 -113q-29 12 -36 21z" />
<glyph unicode="&#xc2;" horiz-adv-x="1366" d="M59 16q0 240 254 684q109 211 377 560q92 121 232 272q164 180 198 180q164 0 148 -223q-8 -104 -21 -371q-2 -68 -10 -233q-4 -115 -4 -172l2 -402q63 -69 98 -184q25 -82 25 -186q0 -51 -64 -54q-53 -4 -130 114t-87 216q-31 45 -69 80q-88 82 -187 90q-4 0 -25.5 -49 t-60.5 -49q-35 2 -67 90q-25 70 -27 106q-4 72 72 72q86 0 190.5 -32.5t153.5 -71.5l24 735q0 27 2 123q4 82 4 127l-63 -41q-387 -408 -641 -914q-59 -121 -88 -227q-18 -92 -37 -184q-35 -150 -72 -150h-45q-25 0 -53.5 37t-28.5 57zM831 1935q4 41 199 150 q188 100 221 98q47 -4 76 -29q66 -72 201 -215q24 -18 20 -49q-2 -33 -25.5 -51t-47.5 -35q-37 31 -150 133q-90 80 -98 82q-35 4 -170 -82t-133 -86q-27 2 -61 34t-32 50z" />
<glyph unicode="&#xc3;" horiz-adv-x="1355" d="M59 16q0 240 254 684q109 211 377 560q92 121 232 272q164 180 198 180q164 0 148 -223q-8 -104 -21 -371q-2 -68 -10 -233q-4 -115 -4 -172l2 -402q63 -69 98 -184q25 -82 25 -186q0 -51 -64 -54q-53 -4 -130 114t-87 216q-31 45 -69 80q-88 82 -187 90q-4 0 -25.5 -49 t-60.5 -49q-35 2 -67 90q-25 70 -27 106q-4 72 72 72q86 0 190.5 -32.5t153.5 -71.5l24 735q0 27 2 123q4 82 4 127l-63 -41q-387 -408 -641 -914q-59 -121 -88 -227q-18 -92 -37 -184q-35 -150 -72 -150h-45q-25 0 -53.5 37t-28.5 57zM621 2018q0 40 43 78q37 35 66 38.5 t52 3.5q104 0 223.5 -82t192.5 -88q60 -4 154 115q71 -12 83 -96q-3 -57 -64 -119q-68 -66 -147 -66q-97 0 -216.5 81t-161.5 81q-14 0 -28 -5q-5 -1 -36 -14.5t-42 -13.5q-36 0 -70 15q-49 35 -49 72z" />
<glyph unicode="&#xc4;" horiz-adv-x="1353" d="M59 16q0 240 254 684q109 211 377 560q92 121 232 272q164 180 198 180q164 0 148 -223q-8 -104 -21 -371q-2 -68 -10 -233q-4 -115 -4 -172l2 -402q63 -69 98 -184q25 -82 25 -186q0 -51 -64 -54q-53 -4 -130 114t-87 216q-31 45 -69 80q-88 82 -187 90q-4 0 -25.5 -49 t-60.5 -49q-35 2 -67 90q-25 70 -27 106q-4 72 72 72q86 0 190.5 -32.5t153.5 -71.5l24 735q0 27 2 123q4 82 4 127l-63 -41q-387 -408 -641 -914q-59 -121 -88 -227q-18 -92 -37 -184q-35 -150 -72 -150h-45q-25 0 -53.5 37t-28.5 57zM922 2165q8 37 54 62.5t81 18.5 q109 -24 82 -143q-8 -39 -48 -62.5t-77 -15.5q-41 8 -71.5 50t-20.5 90zM1381 2099q8 35 50 62.5t87 17.5q98 -23 78 -113q-23 -98 -158 -65q-25 4 -43.5 41t-13.5 57z" />
<glyph unicode="&#xc5;" horiz-adv-x="1363" d="M59 16q0 240 254 684q109 211 377 560q92 121 232 272q164 180 198 180q164 0 148 -223q-8 -104 -21 -371q-2 -68 -10 -233q-4 -115 -4 -172l2 -402q63 -69 98 -184q25 -82 25 -186q0 -51 -64 -54q-53 -4 -130 114t-87 216q-31 45 -69 80q-88 82 -187 90q-4 0 -25.5 -49 t-60.5 -49q-35 2 -67 90q-25 70 -27 106q-4 72 72 72q86 0 190.5 -32.5t153.5 -71.5l24 735q0 27 2 123q4 82 4 127l-63 -41q-387 -408 -641 -914q-59 -121 -88 -227q-18 -92 -37 -184q-35 -150 -72 -150h-45q-25 0 -53.5 37t-28.5 57zM924 2103q0 86 53 189q70 135 182 135 q23 0 39 -14q23 -20 27 -21q16 20 114 21q53 0 106.5 -51.5t53.5 -104.5q0 -129 -100 -246q-109 -125 -248 -125q-90 0 -158.5 60.5t-68.5 156.5zM1094 2128q0 -86 51 -86q57 0 127.5 68.5t70.5 127.5q0 68 -81 68q-72 0 -123 -65q-45 -57 -45 -113z" />
<glyph unicode="&#xc6;" horiz-adv-x="2594" d="M59 16q0 240 254 684q109 211 377 560q92 121 232 272q164 180 198 180q164 0 148 -223q-8 -104 -21 -371q-2 -68 -10 -233q-4 -115 -4 -172l2 -402q63 -69 98 -184q25 -82 25 -186q0 -51 -64 -54q-53 -4 -130 114t-87 216q-31 45 -69 80q-88 82 -187 90q-4 0 -25.5 -49 t-60.5 -49q-35 2 -67 90q-25 70 -27 106q-4 72 72 72q86 0 190.5 -32.5t153.5 -71.5l24 735q0 27 2 123q4 82 4 127l-63 -41q-387 -408 -641 -914q-59 -121 -88 -227q-18 -92 -37 -184q-35 -150 -72 -150h-45q-25 0 -53.5 37t-28.5 57zM527 631q0 47 106 139q104 80 176 107 q78 45 242 84q2 0 55 12l39 108q-23 8 -71 13.5t-62 5.5q-158 12 -182 16q-115 25 -115 101q0 45 20 51q68 23 201 43q111 18 137 18q410 53 764 53q82 0 158 -4q66 -2 172.5 -9t294.5 -32q207 -31 326 -80q6 -8 13 -17t7 -19q0 -8 -4 -15q-55 -20 -86 -20q8 0 -273.5 13 t-324.5 13q-10 0 -210 -4t-210 -4q-27 0 -65 -12q346 -80 346 -178q0 -72 -181 -103q-4 -2 -120 -16l-256 -35q-61 -6 -129 -22q-4 -14 -23 -84q-14 -74 -14 -119q0 -213 123 -367q137 -172 364 -172q59 0 129 15q168 37 393 174q215 129 285 196q34 -21 18 -78 q0 -6 -61 -88q-47 -51 -106.5 -98t-157.5 -115q-76 -55 -211 -108q-156 -61 -262 -62q-68 -6 -146 7q-135 14 -276 108q-86 63 -162 176q-70 96 -102 234q-559 -8 -559 174zM813 631q16 -35 168 -62l86 -10q0 8 -4 61.5t4 149.5q-47 -2 -125 -35q-119 -45 -129 -104z M1357 1040.5q-3 -10.5 56.5 0t67.5 10.5l119 20q-20 2 -183 2q-39 0 -49 -8q-8 -14 -11 -24.5z" />
<glyph unicode="&#xc7;" horiz-adv-x="1630" d="M84 479q0 274 192 582q199 315 512 520q55 41 113 82q74 51 96 51q129 -4 248 -203q92 -152 160 -383q55 -190 55 -264q0 -12 -19.5 -32.5t-33.5 -20.5h-35q-16 0 -44 16.5t-34 36.5q-37 145 -73 291q-72 242 -195 356q-297 -152 -522 -472t-225 -588q0 -240 233 -340 q94 -35 221 -35q164 0 369 57q133 35 192 64q172 78 369 190q20 -14 20 -27q0 -4 -20 -45q-16 -29 -164 -135q-154 -111 -256 -160q-59 -33 -194 -71q-156 -43 -254 -41q-201 2 -365 72q-233 98 -309 309q-37 102 -37 190zM608 -575q-12 26 21 51q16 4 67 43q61 49 70 84 q4 23 -19 112q-23 98 -22 125q2 184 86 185q33 0 65.5 -18.5t32.5 -47.5q0 -8 -13 -54t-13 -54q0 -29 16 -105t16 -113q0 -39 -36 -110q-51 -92 -125 -121q-27 -12 -74 -4t-72 27z" />
<glyph unicode="&#xc8;" horiz-adv-x="1925" d="M25 631q0 47 106 139q104 80 176 107q78 45 242 84q2 0 55 12l39 108q-23 8 -71 13.5t-62 5.5q-158 12 -182 16q-115 25 -115 101q0 45 20 51q68 23 201 43q111 18 137 18q410 53 764 53q82 0 158 -4q66 -2 172.5 -9t294.5 -32q207 -31 326 -80q6 -8 13 -17t7 -19 q0 -8 -4 -15q-55 -20 -86 -20q8 0 -273.5 13t-324.5 13q-10 0 -210 -4t-210 -4q-27 0 -65 -12q346 -80 346 -178q0 -72 -181 -103q-4 -2 -120 -16l-256 -35q-61 -6 -129 -22q-4 -14 -23 -84q-14 -74 -14 -119q0 -213 123 -367q137 -172 364 -172q59 0 129 15q168 37 393 174 q215 129 285 196q34 -21 18 -78q0 -6 -61 -88q-47 -51 -106.5 -98t-157.5 -115q-76 -55 -211 -108q-156 -61 -262 -62q-68 -6 -146 7q-135 14 -276 108q-86 63 -162 176q-70 96 -102 234q-559 -8 -559 174zM311 631q16 -35 168 -62l86 -10q0 8 -4 61.5t4 149.5 q-47 -2 -125 -35q-119 -45 -129 -104zM684 1916q0 86 86 105q74 16 299 -152q170 -123 249 -204l9 -37q-10 -6 -41 -17q-57 -12 -323.5 110t-274.5 157q-4 20 -4 38zM855 1040.5q-3 -10.5 56.5 0t67.5 10.5l119 20q-20 2 -183 2q-39 0 -49 -8q-8 -14 -11 -24.5z" />
<glyph unicode="&#xc9;" horiz-adv-x="1939" d="M25 631q0 47 106 139q104 80 176 107q78 45 242 84q2 0 55 12l39 108q-23 8 -71 13.5t-62 5.5q-158 12 -182 16q-115 25 -115 101q0 45 20 51q68 23 201 43q111 18 137 18q410 53 764 53q82 0 158 -4q66 -2 172.5 -9t294.5 -32q207 -31 326 -80q6 -8 13 -17t7 -19 q0 -8 -4 -15q-55 -20 -86 -20q8 0 -273.5 13t-324.5 13q-10 0 -210 -4t-210 -4q-27 0 -65 -12q346 -80 346 -178q0 -72 -181 -103q-4 -2 -120 -16l-256 -35q-61 -6 -129 -22q-4 -14 -23 -84q-14 -74 -14 -119q0 -213 123 -367q137 -172 364 -172q59 0 129 15q168 37 393 174 q215 129 285 196q34 -21 18 -78q0 -6 -61 -88q-47 -51 -106.5 -98t-157.5 -115q-76 -55 -211 -108q-156 -61 -262 -62q-68 -6 -146 7q-135 14 -276 108q-86 63 -162 176q-70 96 -102 234q-559 -8 -559 174zM311 631q16 -35 168 -62l86 -10q0 8 -4 61.5t4 149.5 q-47 -2 -125 -35q-119 -45 -129 -104zM855 1040.5q-3 -10.5 56.5 0t67.5 10.5l119 20q-20 2 -183 2q-39 0 -49 -8q-8 -14 -11 -24.5zM1086 1628q-8 6 0 31l24 30q8 10 135 90q188 117 320 144q33 -25 42 -74t-20 -84q-20 -27 -67 -31q-63 -4 -90 -14q-265 -103 -308 -113 q-29 12 -36 21z" />
<glyph unicode="&#xca;" horiz-adv-x="1949" d="M25 631q0 47 106 139q104 80 176 107q78 45 242 84q2 0 55 12l39 108q-23 8 -71 13.5t-62 5.5q-158 12 -182 16q-115 25 -115 101q0 45 20 51q68 23 201 43q111 18 137 18q410 53 764 53q82 0 158 -4q66 -2 172.5 -9t294.5 -32q207 -31 326 -80q6 -8 13 -17t7 -19 q0 -8 -4 -15q-55 -20 -86 -20q8 0 -273.5 13t-324.5 13q-10 0 -210 -4t-210 -4q-27 0 -65 -12q346 -80 346 -178q0 -72 -181 -103q-4 -2 -120 -16l-256 -35q-61 -6 -129 -22q-4 -14 -23 -84q-14 -74 -14 -119q0 -213 123 -367q137 -172 364 -172q59 0 129 15q168 37 393 174 q215 129 285 196q34 -21 18 -78q0 -6 -61 -88q-47 -51 -106.5 -98t-157.5 -115q-76 -55 -211 -108q-156 -61 -262 -62q-68 -6 -146 7q-135 14 -276 108q-86 63 -162 176q-70 96 -102 234q-559 -8 -559 174zM311 631q16 -35 168 -62l86 -10q0 8 -4 61.5t4 149.5 q-47 -2 -125 -35q-119 -45 -129 -104zM855 1040.5q-3 -10.5 56.5 0t67.5 10.5l119 20q-20 2 -183 2q-39 0 -49 -8q-8 -14 -11 -24.5zM977 1698q4 41 199 149q188 100 221 99q47 -4 76 -29q66 -72 200 -215q25 -18 21 -49q-2 -33 -25.5 -51.5t-48.5 -34.5q-37 31 -150 133 q-90 80 -98 82q-35 4 -170 -82t-133 -86q-27 2 -60.5 33.5t-31.5 50.5z" />
<glyph unicode="&#xcb;" horiz-adv-x="1929" d="M25 631q0 47 106 139q104 80 176 107q78 45 242 84q2 0 55 12l39 108q-23 8 -71 13.5t-62 5.5q-158 12 -182 16q-115 25 -115 101q0 45 20 51q68 23 201 43q111 18 137 18q410 53 764 53q82 0 158 -4q66 -2 172.5 -9t294.5 -32q207 -31 326 -80q6 -8 13 -17t7 -19 q0 -8 -4 -15q-55 -20 -86 -20q8 0 -273.5 13t-324.5 13q-10 0 -210 -4t-210 -4q-27 0 -65 -12q346 -80 346 -178q0 -72 -181 -103q-4 -2 -120 -16l-256 -35q-61 -6 -129 -22q-4 -14 -23 -84q-14 -74 -14 -119q0 -213 123 -367q137 -172 364 -172q59 0 129 15q168 37 393 174 q215 129 285 196q34 -21 18 -78q0 -6 -61 -88q-47 -51 -106.5 -98t-157.5 -115q-76 -55 -211 -108q-156 -61 -262 -62q-68 -6 -146 7q-135 14 -276 108q-86 63 -162 176q-70 96 -102 234q-559 -8 -559 174zM311 631q16 -35 168 -62l86 -10q0 8 -4 61.5t4 149.5 q-47 -2 -125 -35q-119 -45 -129 -104zM855 1040.5q-3 -10.5 56.5 0t67.5 10.5l119 20q-20 2 -183 2q-39 0 -49 -8q-8 -14 -11 -24.5zM1008 1825q8 37 54 62.5t81 18.5q109 -24 82 -143q-8 -39 -48 -62.5t-77 -15.5q-41 8 -71.5 50t-20.5 90zM1467 1759q8 35 50 62.5t87 17.5 q98 -23 78 -113q-23 -98 -158 -65q-25 4 -43.5 41t-13.5 57z" />
<glyph unicode="&#xcc;" horiz-adv-x="1703" d="M51 1362q0 98 408 211q365 102 471 94q72 6 137 6q270 0 424 -102q166 -113 166 -320q0 -256 -232 -604q-213 -322 -505 -561q-301 -246 -494 -246q-156 29 -225 166q-39 82 -39 162q-4 111 53 260q43 111 85 171t95 142q12 -10 13 -47q0 4 -38 -171t-38 -292 q0 -57 12 -112q18 -92 59 -92q82 -20 271 94q244 145 510 510q279 381 278 641q0 170 -202 225q-96 25 -299 25q-115 0 -320 -66q-145 -47 -328 -123q-156 -66 -151 -65q-20 0 -65.5 33.5t-45.5 60.5zM240 2191q0 86 86 105q74 16 299 -152q170 -123 249 -204l9 -37 q-10 -6 -41 -17q-57 -12 -323.5 110t-274.5 157q-4 20 -4 38z" />
<glyph unicode="&#xcd;" horiz-adv-x="1599" d="M51 1362q0 98 408 211q365 102 471 94q72 6 137 6q270 0 424 -102q166 -113 166 -320q0 -256 -232 -604q-213 -322 -505 -561q-301 -246 -494 -246q-156 29 -225 166q-39 82 -39 162q-4 111 53 260q43 111 85 171t95 142q12 -10 13 -47q0 4 -38 -171t-38 -292 q0 -57 12 -112q18 -92 59 -92q82 -20 271 94q244 145 510 510q279 381 278 641q0 170 -202 225q-96 25 -299 25q-115 0 -320 -66q-145 -47 -328 -123q-156 -66 -151 -65q-20 0 -65.5 33.5t-45.5 60.5zM963 1948q-8 6 0 31l24 30q8 10 135 90q188 117 320 144q33 -25 42 -74 t-20 -84q-20 -27 -67 -31q-63 -4 -90 -14q-265 -103 -308 -113q-29 12 -36 21z" />
<glyph unicode="&#xce;" horiz-adv-x="1591" d="M51 1362q0 98 408 211q365 102 471 94q72 6 137 6q270 0 424 -102q166 -113 166 -320q0 -256 -232 -604q-213 -322 -505 -561q-301 -246 -494 -246q-156 29 -225 166q-39 82 -39 162q-4 111 53 260q43 111 85 171t95 142q12 -10 13 -47q0 4 -38 -171t-38 -292 q0 -57 12 -112q18 -92 59 -92q82 -20 271 94q244 145 510 510q279 381 278 641q0 170 -202 225q-96 25 -299 25q-115 0 -320 -66q-145 -47 -328 -123q-156 -66 -151 -65q-20 0 -65.5 33.5t-45.5 60.5zM762 1964q4 41 199 150q188 100 221 98q47 -4 75 -29q66 -72 201 -215 q25 -18 21 -49q-2 -33 -25.5 -51.5t-48.5 -34.5q-37 31 -150 133q-90 80 -98 82q-35 4 -170 -82t-133 -86q-27 2 -60.5 34t-31.5 50z" />
<glyph unicode="&#xcf;" horiz-adv-x="1583" d="M51 1362q0 98 408 211q365 102 471 94q72 6 137 6q270 0 424 -102q166 -113 166 -320q0 -256 -232 -604q-213 -322 -505 -561q-301 -246 -494 -246q-156 29 -225 166q-39 82 -39 162q-4 111 53 260q43 111 85 171t95 142q12 -10 13 -47q0 4 -38 -171t-38 -292 q0 -57 12 -112q18 -92 59 -92q82 -20 271 94q244 145 510 510q279 381 278 641q0 170 -202 225q-96 25 -299 25q-115 0 -320 -66q-145 -47 -328 -123q-156 -66 -151 -65q-20 0 -65.5 33.5t-45.5 60.5zM914 2098q8 37 54 62.5t81 18.5q109 -24 82 -143q-8 -39 -48 -62.5 t-77 -15.5q-41 8 -71.5 50t-20.5 90zM1373 2032q8 35 50 62.5t87 17.5q98 -23 78 -113q-23 -98 -158 -65q-25 4 -43.5 41t-13.5 57z" />
<glyph unicode="&#xd0;" horiz-adv-x="2205" d="M-63 590q0 31 19 57.5t40 28.5q115 12 229 24q-23 49 -49 109q-29 59 -70 170q-59 156 -59 211q0 45 92 110q76 57 125 72q123 37 301 37q360 0 580 -61q92 -8 315 -99q270 -106 449 -237q231 -168 243 -336q8 -96 -202 -230q-152 -94 -279 -139q-291 -102 -729 -186 q-342 -66 -459 -121q-4 -2 -34 -55q-23 -37 -48 -37h-30q-39 0 -70 55q-25 41 -29 76q-6 39 68 92q41 25 80 49q-31 100 -98 301q-8 16 -17 39q-160 -33 -188 -33q-8 0 -27.5 -4t-28.5 -4q-41 0 -79 29q-45 33 -45 82zM375 1225q76 -12 76 -105q0 -25 -6.5 -59.5t-6.5 -40.5 q10 -88 29 -254q2 -20 4 -41q129 8 231 8q74 0 144 -4q16 -10 32.5 -21.5t12.5 -35.5q-2 -27 -38 -35t-73 -14q-160 -37 -280 -64q8 -41 20 -88q41 -186 74 -260q231 66 641 156q109 23 430 137q80 25 180.5 95.5t100.5 107.5q0 72 -162 192q-139 104 -264 158 q-127 63 -379 131q-303 80 -523 80q-154 0 -243 -43z" />
<glyph unicode="&#xd1;" horiz-adv-x="2048" d="M59 1526q0 31 50 53q37 16 59 16q68 0 166 -114q158 -182 176 -197q20 43 41.5 89t66.5 46q20 0 70 -20q57 -23 57 -47q0 -10 -44 -103.5t-44 -103.5q0 -66 379 -393q362 -313 500 -385q-100 211 -193 548q-104 387 -108 801l14 82q27 35 66 35q117 0 248 -174 q123 -166 131 -299q4 -61 -17 -115q-25 -70 -82 -69q-20 0 -61 23.5t-47 45.5q55 12 59 17q20 10 21 53q0 49 -43 127q-45 86 -82 94q-12 -184 61 -510q63 -270 139 -443t226 -399q129 -192 129 -202q0 -37 -27.5 -69t-52.5 -32q-49 0 -88 62q-53 80 -78 96 q-508 342 -571 389q-338 250 -590 520q-20 -57 -41 -176q-27 -139 -27 -233q0 6 44 -187.5t44 -339.5q0 -211 -88 -211q-182 0 -182 531v334q0 -8 -55 182q-41 150 -140 463q-4 8 -49 112q-37 78 -37 103zM266 2165q0 43 49 84q41 37 74 41t59 4q117 0 252 -88t217 -94 q68 -4 174 123q80 -13 94 -103q-4 -61 -73 -127q-76 -70 -166 -70q-109 0 -244 86.5t-182 86.5q-16 0 -31 -5q-6 -2 -41 -16t-47 -14q-41 0 -80 16q-55 37 -55 76zM397 1141q4 -23 15 -66q10 -35 10 -47q27 55 27 57z" />
<glyph unicode="&#xd2;" horiz-adv-x="1769" d="M98 612q0 195 129 465q141 289 351 477q244 219 505 220q82 0 166 -43q106 -53 133 -144q10 -33 4 -74q-8 -61 -8 -67q201 -78 303 -256q88 -148 88 -324q0 -385 -306 -691t-709 -331q-18 -2 -70 2q-57 4 -63 4q-16 0 -64 17q-53 20 -84 41q-213 143 -301 332 q-74 158 -74 372zM125 2195q0 86 86 105q74 16 299 -152q170 -123 249 -204l9 -37q-10 -6 -41 -17q-57 -12 -323.5 110t-274.5 157q-4 20 -4 38zM297 567q0 -186 96 -354q125 -219 344 -219q313 0 572 268q268 277 268 633q0 211 -152 338q-137 117 -333 117 q-100 0 -197 -41q-61 -27 -133 -76q-59 -41 -70 -41q-29 0 -28 29q0 135 202 219q145 59 246 59h131v29q-45 88 -135 88q-193 0 -391 -180q-178 -164 -299 -412t-121 -457z" />
<glyph unicode="&#xd3;" horiz-adv-x="1763" d="M98 612q0 195 129 465q141 289 351 477q244 219 505 220q82 0 166 -43q106 -53 133 -144q10 -33 4 -74q-8 -61 -8 -67q201 -78 303 -256q88 -148 88 -324q0 -385 -306 -691t-709 -331q-18 -2 -70 2q-57 4 -63 4q-16 0 -64 17q-53 20 -84 41q-213 143 -301 332 q-74 158 -74 372zM297 567q0 -186 96 -354q125 -219 344 -219q313 0 572 268q268 277 268 633q0 211 -152 338q-137 117 -333 117q-100 0 -197 -41q-61 -27 -133 -76q-59 -41 -70 -41q-29 0 -28 29q0 135 202 219q145 59 246 59h131v29q-45 88 -135 88q-193 0 -391 -180 q-178 -164 -299 -412t-121 -457zM1309 1989q-8 6 0 31l24 30q8 10 135 90q188 117 320 144q33 -25 42 -74t-20 -84q-20 -27 -67 -31q-63 -4 -90 -14q-265 -103 -308 -113q-29 12 -36 21z" />
<glyph unicode="&#xd4;" horiz-adv-x="1755" d="M98 612q0 195 129 465q141 289 351 477q244 219 505 220q82 0 166 -43q106 -53 133 -144q10 -33 4 -74q-8 -61 -8 -67q201 -78 303 -256q88 -148 88 -324q0 -385 -306 -691t-709 -331q-18 -2 -70 2q-57 4 -63 4q-16 0 -64 17q-53 20 -84 41q-213 143 -301 332 q-74 158 -74 372zM297 567q0 -186 96 -354q125 -219 344 -219q313 0 572 268q268 277 268 633q0 211 -152 338q-137 117 -333 117q-100 0 -197 -41q-61 -27 -133 -76q-59 -41 -70 -41q-29 0 -28 29q0 135 202 219q145 59 246 59h131v29q-45 88 -135 88q-193 0 -391 -180 q-178 -164 -299 -412t-121 -457zM762 2028q4 41 199 149q188 100 221 98q47 -4 75 -28q66 -72 201 -215q25 -19 21 -50q-2 -33 -25.5 -51t-48.5 -35q-37 31 -150 134q-90 80 -98 81q-35 4 -170 -81.5t-133 -85.5q-27 2 -60.5 33.5t-31.5 50.5z" />
<glyph unicode="&#xd5;" horiz-adv-x="1757" d="M98 612q0 195 129 465q141 289 351 477q244 219 505 220q82 0 166 -43q106 -53 133 -144q10 -33 4 -74q-8 -61 -8 -67q201 -78 303 -256q88 -148 88 -324q0 -385 -306 -691t-709 -331q-18 -2 -70 2q-57 4 -63 4q-16 0 -64 17q-53 20 -84 41q-213 143 -301 332 q-74 158 -74 372zM297 567q0 -186 96 -354q125 -219 344 -219q313 0 572 268q268 277 268 633q0 211 -152 338q-137 117 -333 117q-100 0 -197 -41q-61 -27 -133 -76q-59 -41 -70 -41q-29 0 -28 29q0 135 202 219q145 59 246 59h131v29q-45 88 -135 88q-193 0 -391 -180 q-178 -164 -299 -412t-121 -457zM725 2187q0 43 49 84q41 37 74 41t59 4q117 0 252 -88t217 -94q68 -4 174 123q80 -13 94 -103q-4 -61 -73 -127q-76 -70 -166 -70q-109 0 -244 86.5t-182 86.5q-16 0 -31 -5q-6 -2 -41 -16t-47 -14q-41 0 -80 16q-55 37 -55 76z" />
<glyph unicode="&#xd6;" horiz-adv-x="1759" d="M98 612q0 195 129 465q141 289 351 477q244 219 505 220q82 0 166 -43q106 -53 133 -144q10 -33 4 -74q-8 -61 -8 -67q201 -78 303 -256q88 -148 88 -324q0 -385 -306 -691t-709 -331q-18 -2 -70 2q-57 4 -63 4q-16 0 -64 17q-53 20 -84 41q-213 143 -301 332 q-74 158 -74 372zM297 567q0 -186 96 -354q125 -219 344 -219q313 0 572 268q268 277 268 633q0 211 -152 338q-137 117 -333 117q-100 0 -197 -41q-61 -27 -133 -76q-59 -41 -70 -41q-29 0 -28 29q0 135 202 219q145 59 246 59h131v29q-45 88 -135 88q-193 0 -391 -180 q-178 -164 -299 -412t-121 -457zM866 2184q8 37 54 62.5t81 18.5q109 -24 82 -143q-8 -39 -48 -62.5t-77 -15.5q-41 8 -71.5 50t-20.5 90zM1325 2118q8 35 50 62.5t87 17.5q98 -23 78 -113q-23 -98 -158 -65q-25 4 -43.5 41t-13.5 57z" />
<glyph unicode="&#xd7;" horiz-adv-x="1357" d="M37 117q0 70 100 153q78 66 189 123q102 49 114 41q-20 47 -28 60q-23 37 -60 59t-73 45q-70 45 -70 76q0 16 20.5 47t42.5 31q70 0 179 -109q102 -100 112 -154q45 18 113 46q45 59 164 182q76 70 185.5 123t180.5 53q59 0 95 -29.5t36 -66.5q0 -18 -17 -47t-36 -29 q-8 0 -8 4t-10 4q-29 0 -105 -31q-109 -45 -204 -118.5t-146 -206.5q-43 -115 -43 -232q0 -74 27 -127q35 -70 102 -69q6 0 50 7t54 7q45 0 64 -16q-10 -45 -57 -80q-98 -53 -131 -53q-145 0 -224 155q-55 113 -55 238q0 20 10 86q14 82 31 121l-43 -17q10 -74 -25 -162 q-55 -139 -192 -221q-106 -45 -148 -51q-59 -6 -126.5 45t-67.5 113zM215 139q0 -6 4 -10h19q41 0 108.5 49t75.5 84q10 43 4 64q-16 4 -111 -68q-100 -78 -100 -119z" />
<glyph unicode="&#xd8;" horiz-adv-x="1810" d="M98 612q0 195 129 465q141 289 351 477q244 219 505 220q82 0 166 -43q106 -53 133 -144q10 -33 4 -74q-8 -61 -8 -67q201 -78 303 -256q88 -148 88 -324q0 -385 -306 -691t-709 -331q-18 -2 -70 2q-57 4 -63 4q-16 0 -64 17q-53 20 -84 41q-213 143 -301 332 q-74 158 -74 372zM297 567q0 -186 96 -354q125 -219 344 -219q313 0 572 268q268 277 268 633q0 211 -152 338q-137 117 -333 117q-100 0 -197 -41q-61 -27 -133 -76q-59 -41 -70 -41q-29 0 -28 29q0 135 202 219q145 59 246 59h131v29q-45 88 -135 88q-193 0 -391 -180 q-178 -164 -299 -412t-121 -457zM570 -251q0 32 8 75q16 87 103 359q174 587 511 1663q4 12 28 20t36 5q32 -9 65.5 -47t27.5 -74q-104 -336 -314 -1002q-88 -268 -174 -538q-109 -345 -138 -548q-4 -2 -25.5 -22.5t-39.5 -20.5q-9 0 -24 7q-65 32 -64 123z" />
<glyph unicode="&#xd9;" horiz-adv-x="1927" d="M39 82q0 41 186 418q96 199 195 397q49 139 96 279q63 182 82 292q8 55 18 113q12 74 32 107.5t79 33.5q27 0 66 -24q29 -20 59 -41q-82 -362 -256 -783q-150 -336 -299 -673q47 -16 90 -17q231 0 537 80q336 88 419 197q27 100 66 319q14 86 35 260q6 141 0 355 q66 33 96 32q115 0 249 -131t134 -254q2 -330 -403 -673q-8 -174 61 -295q82 -104 199 -103v-43q-55 -39 -78 -45q-8 -2 -51 -2q-244 0 -324 385q-106 -78 -528 -186q-430 -109 -654 -109q-41 0 -73.5 38t-32.5 73zM570 2152q0 86 86 105q74 16 299 -152q170 -123 249 -204 l9 -37q-10 -6 -41 -17q-57 -12 -323.5 110t-274.5 157q-4 20 -4 38zM1561 625q82 117 129 192.5t47 167.5q0 68 -105 223q-12 -170 -33 -348q-23 -156 -38 -235z" />
<glyph unicode="&#xda;" horiz-adv-x="1925" d="M39 82q0 41 186 418q96 199 195 397q49 139 96 279q63 182 82 292q8 55 18 113q12 74 32 107.5t79 33.5q27 0 66 -24q29 -20 59 -41q-82 -362 -256 -783q-150 -336 -299 -673q47 -16 90 -17q231 0 537 80q336 88 419 197q27 100 66 319q14 86 35 260q6 141 0 355 q66 33 96 32q115 0 249 -131t134 -254q2 -330 -403 -673q-8 -174 61 -295q82 -104 199 -103v-43q-55 -39 -78 -45q-8 -2 -51 -2q-244 0 -324 385q-106 -78 -528 -186q-430 -109 -654 -109q-41 0 -73.5 38t-32.5 73zM1336 1862q-8 6 0 31l24 30q8 10 135 90q188 117 320 144 q33 -25 42 -74t-20 -84q-20 -27 -67 -31q-63 -4 -90 -14q-265 -103 -308 -113q-29 12 -36 21zM1561 625q82 117 129 192.5t47 167.5q0 68 -105 223q-12 -170 -33 -348q-23 -156 -38 -235z" />
<glyph unicode="&#xdb;" horiz-adv-x="1921" d="M39 82q0 41 186 418q96 199 195 397q49 139 96 279q63 182 82 292q8 55 18 113q12 74 32 107.5t79 33.5q27 0 66 -24q29 -20 59 -41q-82 -362 -256 -783q-150 -336 -299 -673q47 -16 90 -17q231 0 537 80q336 88 419 197q27 100 66 319q14 86 35 260q6 141 0 355 q66 33 96 32q115 0 249 -131t134 -254q2 -330 -403 -673q-8 -174 61 -295q82 -104 199 -103v-43q-55 -39 -78 -45q-8 -2 -51 -2q-244 0 -324 385q-106 -78 -528 -186q-430 -109 -654 -109q-41 0 -73.5 38t-32.5 73zM948 1985q4 41 199 149q188 100 221 98q47 -4 76 -28 q66 -72 201 -215q24 -19 20 -50q-2 -33 -25.5 -51t-48.5 -35q-37 31 -149 134q-90 80 -99 81q-35 4 -170 -81.5t-133 -85.5q-27 2 -60.5 33.5t-31.5 50.5zM1561 625q82 117 129 192.5t47 167.5q0 68 -105 223q-12 -170 -33 -348q-23 -156 -38 -235z" />
<glyph unicode="&#xdc;" horiz-adv-x="1927" d="M39 82q0 41 186 418q96 199 195 397q49 139 96 279q63 182 82 292q8 55 18 113q12 74 32 107.5t79 33.5q27 0 66 -24q29 -20 59 -41q-82 -362 -256 -783q-150 -336 -299 -673q47 -16 90 -17q231 0 537 80q336 88 419 197q27 100 66 319q14 86 35 260q6 141 0 355 q66 33 96 32q115 0 249 -131t134 -254q2 -330 -403 -673q-8 -174 61 -295q82 -104 199 -103v-43q-55 -39 -78 -45q-8 -2 -51 -2q-244 0 -324 385q-106 -78 -528 -186q-430 -109 -654 -109q-41 0 -73.5 38t-32.5 73zM897 2163q8 37 54 62.5t81 19.5q109 -25 82 -144 q-8 -39 -48 -62.5t-77 -15.5q-41 8 -71.5 50.5t-20.5 89.5zM1460 1958q8 35 50 62.5t87 17.5q98 -23 78 -113q-23 -98 -157 -65q-25 4 -43.5 40.5t-14.5 57.5zM1561 625q82 117 129 192.5t47 167.5q0 68 -105 223q-12 -170 -33 -348q-23 -156 -38 -235z" />
<glyph unicode="&#xdd;" horiz-adv-x="1880" d="M41 1489q37 37 74 37q90 0 117.5 -42t46.5 -138q51 -227 274 -508t571 -478q104 115 236 261l-219 753q-18 211 293 336q240 98 462 98q154 0 283 -49q191 -71 191 -227q0 -104 -213 -344q-121 -137 -396 -404q-211 -209 -209 -229q-4 14 35 -131q29 -102 25 -166 q-8 -88 -72 -115q-117 -45 -364 29q-150 -152 -324 -417t-109 -404q6 -37 11 -45q31 -43 63 -90q-45 -49 -96 -50q-90 0 -141 101q-41 76 -41 166q-25 219 477 809q-897 592 -975 1247zM740 1837q-8 6 0 31l24 30q8 10 135 90q188 117 320 144q33 -25 42 -74t-20 -84 q-20 -27 -67 -31q-63 -4 -90 -14q-265 -103 -308 -113q-29 12 -36 21zM1294 295q70 -33 107 -33q33 0 39 6q14 16 14 49l-31 125q-59 -76 -129 -147zM1327 1374q0 -70 68 -323q37 -139 88 -312q215 215 438 447q283 295 279 379q0 57 -99 88q-72 23 -151 22q-127 0 -338 -69 q-285 -92 -285 -232z" />
<glyph unicode="&#xdf;" horiz-adv-x="1581" d="M63 256q0 59 12.5 277.5t100.5 480.5q113 332 289 528q223 248 516 238q186 -6 289.5 -123t97.5 -299q-10 -301 -289 -662q184 0 303 -61q154 -78 148 -242q-4 -141 -182 -272q-143 -102 -359 -174q-184 -63 -270 -62q-76 4 -139 47q-78 51 -74 134q2 80 55 77 q35 -2 58.5 -55t80.5 -55q117 -4 369 106q297 131 301 271q4 76 -90 110q-68 27 -135 23q-88 -4 -174 -35q-78 -27 -133 -25q-100 4 -99 74q0 35 88 117q53 49 107 98q264 319 274 590q4 143 -47 211.5t-180 73.5q-240 8 -422 -213q-141 -174 -231 -463q-72 -225 -78 -385 l-10 -338q-6 -131 36 -248q29 -76 82 -158q45 -66 45 -73q-2 -82 -104 -78q-117 4 -186 268q-53 197 -50 297z" />
<glyph unicode="&#xe0;" horiz-adv-x="1001" d="M39 1267q0 76 78 93q66 14 268 -134q153 -109 224 -181l8 -32q-9 -5 -37 -15q-51 -11 -290.5 97t-246.5 139q-4 17 -4 33zM66 160q0 125 141 303q127 156 299 279.5t266 123.5q59 0 108.5 -49t49.5 -108q0 -8 -20.5 -91t-20.5 -94q0 -8 20.5 -36.5t20.5 -43.5 q0 -35 -67.5 -124t-67.5 -111q6 -70 63 -107q78 -51 94 -82q-68 -49 -94 -49q-53 0 -135 47.5t-80 47.5q-51 -41 -92 -68q-106 -68 -182 -76q-303 0 -303 238zM246 115q0 -25 35 -43q29 -14 55 -15q109 0 252 136q0 10 -4 35.5t-4 43.5q0 55 28 134q27 70 58 96q14 12 45 20 q18 7 20 27q14 96 -8 121q-2 2 -10 2q-68 0 -260 -207q-207 -221 -207 -350z" />
<glyph unicode="&#xe1;" horiz-adv-x="1001" d="M66 160q0 125 141 303q127 156 299 279.5t266 123.5q59 0 108.5 -49t49.5 -108q0 -8 -20.5 -91t-20.5 -94q0 -8 20.5 -36.5t20.5 -43.5q0 -35 -67.5 -124t-67.5 -111q6 -70 63 -107q78 -51 94 -82q-68 -49 -94 -49q-53 0 -135 47.5t-80 47.5q-51 -41 -92 -68 q-106 -68 -182 -76q-303 0 -303 238zM246 115q0 -25 35 -43q29 -14 55 -15q109 0 252 136q0 10 -4 35.5t-4 43.5q0 55 28 134q27 70 58 96q14 12 45 20q18 7 20 27q14 96 -8 121q-2 2 -10 2q-68 0 -260 -207q-207 -221 -207 -350zM906 1016q-8 6 0 31l24 30q8 10 135 90 q188 117 320 144q33 -25 42 -74t-20 -84q-20 -27 -67 -31q-63 -4 -90 -14q-265 -103 -308 -113q-29 12 -36 21z" />
<glyph unicode="&#xe2;" horiz-adv-x="1001" d="M66 160q0 125 141 303q127 156 299 279.5t266 123.5q59 0 108.5 -49t49.5 -108q0 -8 -20.5 -91t-20.5 -94q0 -8 20.5 -36.5t20.5 -43.5q0 -35 -67.5 -124t-67.5 -111q6 -70 63 -107q78 -51 94 -82q-68 -49 -94 -49q-53 0 -135 47.5t-80 47.5q-51 -41 -92 -68 q-106 -68 -182 -76q-303 0 -303 238zM246 115q0 -25 35 -43q29 -14 55 -15q109 0 252 136q0 10 -4 35.5t-4 43.5q0 55 28 134q27 70 58 96q14 12 45 20q18 7 20 27q14 96 -8 121q-2 2 -10 2q-68 0 -260 -207q-207 -221 -207 -350zM475 1090q4 41 199 149q188 100 221 98 q47 -4 76 -28q66 -72 200 -215q25 -19 21 -50q-2 -33 -25.5 -51t-48.5 -35q-37 31 -149 134q-90 80 -99 82q-35 4 -170 -82t-133 -86q-27 2 -60.5 33.5t-31.5 50.5z" />
<glyph unicode="&#xe3;" horiz-adv-x="1001" d="M66 160q0 125 141 303q127 156 299 279.5t266 123.5q59 0 108.5 -49t49.5 -108q0 -8 -20.5 -91t-20.5 -94q0 -8 20.5 -36.5t20.5 -43.5q0 -35 -67.5 -124t-67.5 -111q6 -70 63 -107q78 -51 94 -82q-68 -49 -94 -49q-53 0 -135 47.5t-80 47.5q-51 -41 -92 -68 q-106 -68 -182 -76q-303 0 -303 238zM246 115q0 -25 35 -43q29 -14 55 -15q109 0 252 136q0 10 -4 35.5t-4 43.5q0 55 28 134q27 70 58 96q14 12 45 20q18 7 20 27q14 96 -8 121q-2 2 -10 2q-68 0 -260 -207q-207 -221 -207 -350zM332 1215q0 40 45 78q39 34 70 37.5t55 3.5 q109 0 235.5 -81.5t203.5 -86.5q63 -4 162 114q75 -12 88 -96q-3 -56 -68 -117q-71 -65 -155 -65q-102 0 -228.5 80t-170.5 80q-15 0 -29 -4q-5 -2 -38 -15t-44 -13q-38 0 -75 15q-51 34 -51 70z" />
<glyph unicode="&#xe4;" horiz-adv-x="1001" d="M66 160q0 125 141 303q127 156 299 279.5t266 123.5q59 0 108.5 -49t49.5 -108q0 -8 -20.5 -91t-20.5 -94q0 -8 20.5 -36.5t20.5 -43.5q0 -35 -67.5 -124t-67.5 -111q6 -70 63 -107q78 -51 94 -82q-68 -49 -94 -49q-53 0 -135 47.5t-80 47.5q-51 -41 -92 -68 q-106 -68 -182 -76q-303 0 -303 238zM246 115q0 -25 35 -43q29 -14 55 -15q109 0 252 136q0 10 -4 35.5t-4 43.5q0 55 28 134q27 70 58 96q14 12 45 20q18 7 20 27q14 96 -8 121q-2 2 -10 2q-68 0 -260 -207q-207 -221 -207 -350zM492 1246q8 37 54 62.5t81 18.5 q109 -24 82 -143q-8 -39 -48 -62.5t-77 -15.5q-41 8 -71.5 50t-20.5 90zM951 1180q8 35 50 62.5t87 17.5q98 -23 78 -113q-23 -98 -158 -65q-25 4 -43.5 41t-13.5 57z" />
<glyph unicode="&#xe5;" horiz-adv-x="1001" d="M66 160q0 125 141 303q127 156 299 279.5t266 123.5q59 0 108.5 -49t49.5 -108q0 -8 -20.5 -91t-20.5 -94q0 -8 20.5 -36.5t20.5 -43.5q0 -35 -67.5 -124t-67.5 -111q6 -70 63 -107q78 -51 94 -82q-68 -49 -94 -49q-53 0 -135 47.5t-80 47.5q-51 -41 -92 -68 q-106 -68 -182 -76q-303 0 -303 238zM246 115q0 -25 35 -43q29 -14 55 -15q109 0 252 136q0 10 -4 35.5t-4 43.5q0 55 28 134q27 70 58 96q14 12 45 20q18 7 20 27q14 96 -8 121q-2 2 -10 2q-68 0 -260 -207q-207 -221 -207 -350zM606 1171q0 86 53 189q70 135 183 135 q23 0 39 -14q23 -20 26 -21q16 20 115 21q53 0 106.5 -51.5t53.5 -104.5q0 -129 -101 -246q-109 -125 -247 -125q-90 0 -159 60.5t-69 156.5zM776 1196q0 -86 51 -86q57 0 128 69t71 128q0 68 -82 67q-72 0 -123 -65q-45 -57 -45 -113z" />
<glyph unicode="&#xe6;" horiz-adv-x="1499" d="M66 160q0 125 141 303q127 156 299 279.5t266 123.5q59 0 108.5 -49t49.5 -108q0 -8 -20.5 -91t-20.5 -94q0 -8 20.5 -36.5t20.5 -43.5q0 -35 -67.5 -124t-67.5 -111q6 -70 63 -107q78 -51 94 -82q-68 -49 -94 -49q-53 0 -135 47.5t-80 47.5q-51 -41 -92 -68 q-106 -68 -182 -76q-303 0 -303 238zM246 115q0 -25 35 -43q29 -14 55 -15q109 0 252 136q0 10 -4 35.5t-4 43.5q0 55 28 134q27 70 58 96q14 12 45 20q18 7 20 27q14 96 -8 121q-2 2 -10 2q-68 0 -260 -207q-207 -221 -207 -350zM694 348q0 180 129 357q145 201 344 200 q92 0 150 -76q51 -68 47 -157q-4 -119 -92 -283q-72 -141 -238 -164q-57 -12 -120 -8q14 -57 71.5 -93t130.5 -36q78 0 173.5 47t93.5 47q31 0 38 -16q4 -25 -51 -80q-45 -49 -117.5 -80t-134.5 -39q-72 -6 -161 13.5t-179 130.5q-84 116 -84 237zM879 383q45 -8 114 -2 q106 6 162 156q39 104 39 190q0 14 -22 23q-66 6 -176.5 -120t-114.5 -208z" />
<glyph unicode="&#xe7;" horiz-adv-x="851" d="M59 395q0 182 121 348q139 186 338 187q111 0 193 -68.5t82 -167.5q0 -61 -54.5 -122.5t-103.5 -61.5q-18 0 -33.5 21.5t-15.5 31.5q0 6 21.5 42t21.5 83q0 84 -86 84q-143 0 -244 -174q-63 -137 -63 -256q0 -117 63 -191.5t172 -74.5q76 0 182 28q33 4 33 -12t-22 -51 q-114 -100 -218 -100q-166 0 -282 151q-104 137 -105 303zM278 -403q-12 26 21 51q16 4 67 43q61 49 70 84q4 23 -19 112q-23 98 -22 125q2 184 86 185q33 0 65.5 -18.5t32.5 -47.5q0 -8 -13 -54t-13 -54q0 -29 16 -105t16 -113q0 -39 -36 -110q-51 -92 -125 -121 q-27 -12 -74 -4t-72 27z" />
<glyph unicode="&#xe8;" horiz-adv-x="845" d="M-123 1321q0 76 74 93q63 14 257 -135q146 -109 214 -181l8 -33q-9 -5 -36 -15q-49 -10 -278 98t-236 139q-3 18 -3 34zM59 348q0 180 129 357q145 201 344 200q92 0 150 -76q51 -68 47 -157q-4 -119 -92 -283q-72 -141 -238 -164q-57 -12 -120 -8q14 -57 71.5 -93 t130.5 -36q78 0 173.5 47t93.5 47q31 0 38 -16q4 -25 -51 -80q-45 -49 -117.5 -80t-134.5 -39q-72 -6 -161 13.5t-179 130.5q-84 116 -84 237zM244 383q45 -8 114 -2q106 6 162 156q39 104 39 190q0 14 -22 23q-66 6 -176.5 -120t-114.5 -208z" />
<glyph unicode="&#xe9;" horiz-adv-x="845" d="M59 348q0 180 129 357q145 201 344 200q92 0 150 -76q51 -68 47 -157q-4 -119 -92 -283q-72 -141 -238 -164q-57 -12 -120 -8q14 -57 71.5 -93t130.5 -36q78 0 173.5 47t93.5 47q31 0 38 -16q4 -25 -51 -80q-45 -49 -117.5 -80t-134.5 -39q-72 -6 -161 13.5t-179 130.5 q-84 116 -84 237zM244 383q45 -8 114 -2q106 6 162 156q39 104 39 190q0 14 -22 23q-66 6 -176.5 -120t-114.5 -208zM674 1006q-8 6 0 31l24 30q8 10 135 90q188 117 320 144q33 -25 42 -74t-20 -84q-20 -27 -67 -31q-63 -4 -90 -14q-265 -103 -308 -113q-29 12 -36 21z" />
<glyph unicode="&#xea;" horiz-adv-x="845" d="M59 348q0 180 129 357q145 201 344 200q92 0 150 -76q51 -68 47 -157q-4 -119 -92 -283q-72 -141 -238 -164q-57 -12 -120 -8q14 -57 71.5 -93t130.5 -36q78 0 173.5 47t93.5 47q31 0 38 -16q4 -25 -51 -80q-45 -49 -117.5 -80t-134.5 -39q-72 -6 -161 13.5t-179 130.5 q-84 116 -84 237zM223 1130q4 41 199 150q188 100 221 98q47 -4 76 -28q66 -72 201 -215q24 -19 20 -50q-2 -33 -25.5 -51t-48.5 -35q-37 31 -149 134q-90 80 -99 81q-35 4 -170 -81.5t-133 -85.5q-27 2 -60.5 33.5t-31.5 49.5zM244 383q45 -8 114 -2q106 6 162 156 q39 104 39 190q0 14 -22 23q-66 6 -176.5 -120t-114.5 -208z" />
<glyph unicode="&#xeb;" horiz-adv-x="845" d="M59 348q0 180 129 357q145 201 344 200q92 0 150 -76q51 -68 47 -157q-4 -119 -92 -283q-72 -141 -238 -164q-57 -12 -120 -8q14 -57 71.5 -93t130.5 -36q78 0 173.5 47t93.5 47q31 0 38 -16q4 -25 -51 -80q-45 -49 -117.5 -80t-134.5 -39q-72 -6 -161 13.5t-179 130.5 q-84 116 -84 237zM244 383q45 -8 114 -2q106 6 162 156q39 104 39 190q0 14 -22 23q-66 6 -176.5 -120t-114.5 -208zM299 1311q8 37 54 62.5t81 18.5q109 -24 82 -143q-8 -39 -48 -62.5t-77 -15.5q-41 8 -71.5 50t-20.5 90zM758 1245q8 35 50 62.5t87 17.5q98 -23 78 -113 q-23 -98 -158 -65q-25 4 -43.5 41t-13.5 57z" />
<glyph unicode="&#xec;" horiz-adv-x="438" d="M-199 1221q0 78 66 94q55 14 225 -137q129 -111 189 -185l6 -32q-8 -6 -31 -17q-43 -10 -243.5 99.5t-207.5 142.5q-4 18 -4 35zM90 262q0 94 25 250q12 55 24 168q39 27 82 27q16 0 58.5 -27t42.5 -49q0 10 -32 -160t-32 -285q0 -150 55 -200q23 -25 -2 -62h-53 q-106 0 -147 156q-20 82 -21 182z" />
<glyph unicode="&#xed;" horiz-adv-x="438" d="M90 262q0 94 25 250q12 55 24 168q39 27 82 27q16 0 58.5 -27t42.5 -49q0 10 -32 -160t-32 -285q0 -150 55 -200q23 -25 -2 -62h-53q-106 0 -147 156q-20 82 -21 182zM367 991q-8 6 0 31l24 31q8 10 135 90q188 117 320 143q33 -25 42 -74t-20 -84q-20 -27 -67 -30 q-63 -4 -90 -15q-265 -102 -308 -112q-29 12 -36 20z" />
<glyph unicode="&#xee;" horiz-adv-x="438" d="M-51 1044q0 41 172 160q164 115 194 115q43 0 74 -21q63 -66 199 -192q22 -16 22 -47t-20.5 -50.5t-40.5 -37.5q-37 27 -148 116q-90 72 -98 72q-31 0 -147.5 -94t-114.5 -94q-25 0 -58.5 28.5t-33.5 44.5zM90 262q0 94 25 250q12 55 24 168q39 27 82 27q16 0 58.5 -27 t42.5 -49q0 10 -32 -160t-32 -285q0 -150 55 -200q23 -25 -2 -62h-53q-106 0 -147 156q-20 82 -21 182z" />
<glyph unicode="&#xef;" horiz-adv-x="438" d="M-23 1227q8 37 54.5 62.5t81.5 19.5q109 -25 82 -144q-8 -39 -48.5 -62.5t-76.5 -15.5q-41 8 -72 50.5t-21 89.5zM90 262q0 94 25 250q12 55 24 168q39 27 82 27q16 0 58.5 -27t42.5 -49q0 10 -32 -160t-32 -285q0 -150 55 -200q23 -25 -2 -62h-53q-106 0 -147 156 q-20 82 -21 182zM436 1161q8 35 50 62.5t87 17.5q98 -23 78 -113q-23 -98 -157 -65q-25 4 -43.5 41t-14.5 57z" />
<glyph unicode="&#xf0;" horiz-adv-x="833" d="M45 1310q0 -16 16 -48t37 -38q23 29 65 64q18 4 37 4q129 0 265 -197q102 -152 133 -272l6 -41q-55 66 -129 123t-115 59q-70 4 -125 -23.5t-90 -113.5q-23 -59 -23 -88q-4 -109 94.5 -301.5t235.5 -329.5q156 -158 289 -158q41 0 68.5 28t27.5 69q0 43 -18 51 q-39 16 -115 55q-117 70 -184 164q-221 313 -221 432q0 37 16 60q14 8 45 2q256 -172 256 -392q0 -39 -8 -75q27 -47 82 -47q92 0 121 149q18 92 10 215q-12 211 -168 473q-186 315 -412 316q-61 0 -123 -33q-74 -41 -73 -107z" />
<glyph unicode="&#xf1;" horiz-adv-x="1024" d="M74 221l36 181q37 180 29 221q12 14 26.5 31.5t59.5 21.5q39 4 73 -24.5t38 -63.5q2 -25 -2 -45q-10 -39 -12 -62q113 111 223 219q158 150 246 158q66 6 108.5 -38t46.5 -109q10 -104 -54.5 -321.5t-60.5 -278.5q6 -74 29 -121q-14 -51 -88 -27q-33 12 -78 80 q-34 72 -14 195q106 399 65 438q-31 10 -268 -260q-246 -279 -272 -287q-14 -4 -45 -12q-35 -2 -64 47q-20 35 -22 57zM185 1209q0 40 46 79q38 34 69 37.5t55 3.5q109 0 234.5 -81.5t202.5 -87.5q63 -4 161 115q75 -13 88 -96q-4 -57 -68 -119q-71 -65 -154 -65 q-102 0 -227.5 80.5t-169.5 80.5q-15 0 -29 -4q-6 -2 -38.5 -15t-43.5 -13q-38 0 -74 15q-52 34 -52 70z" />
<glyph unicode="&#xf2;" d="M-1 1401q0 80 76 98q66 15 266 -142q151 -115 221 -191l8 -34q-9 -6 -36 -16q-51 -12 -288 102.5t-244 146.5q-3 19 -3 36zM68 250q0 233 178 465.5t362 232.5q70 0 127 -39q68 -47 62 -121q-37 -37 -60 -36q-8 0 -44 17t-44 17q-152 0 -291 -204q-127 -188 -122 -332 q2 -53 20 -111q25 -72 61 -84q31 -12 45 -12q135 0 236 154q86 129 86 235q0 102 -31 109q-4 4 -8 4q-43 0 -86 -92q-12 -37 -22 -74q-23 -55 -60 -55q-29 0 -47 63q-12 45 -12 84q0 100 82 176q78 70 168 70q88 0 145 -92q45 -76 45 -160q0 -111 -39 -201 q-94 -190 -206.5 -272t-286.5 -82q-117 6 -195 135q-63 106 -63 205z" />
<glyph unicode="&#xf3;" d="M68 250q0 233 178 465.5t362 232.5q70 0 127 -39q68 -47 62 -121q-37 -37 -60 -36q-8 0 -44 17t-44 17q-152 0 -291 -204q-127 -188 -122 -332q2 -53 20 -111q25 -72 61 -84q31 -12 45 -12q135 0 236 154q86 129 86 235q0 102 -31 109q-4 4 -8 4q-43 0 -86 -92 q-12 -37 -22 -74q-23 -55 -60 -55q-29 0 -47 63q-12 45 -12 84q0 100 82 176q78 70 168 70q88 0 145 -92q45 -76 45 -160q0 -111 -39 -201q-94 -190 -206.5 -272t-286.5 -82q-117 6 -195 135q-63 106 -63 205zM742 1108q-8 6 0 31l24 30q8 10 135 90q188 117 320 144 q33 -25 42 -74t-20 -84q-20 -27 -67 -31q-63 -4 -90 -14q-265 -103 -308 -113q-29 12 -36 21z" />
<glyph unicode="&#xf4;" d="M68 250q0 233 178 465.5t362 232.5q70 0 127 -39q68 -47 62 -121q-37 -37 -60 -36q-8 0 -44 17t-44 17q-152 0 -291 -204q-127 -188 -122 -332q2 -53 20 -111q25 -72 61 -84q31 -12 45 -12q135 0 236 154q86 129 86 235q0 102 -31 109q-4 4 -8 4q-43 0 -86 -92 q-12 -37 -22 -74q-23 -55 -60 -55q-29 0 -47 63q-12 45 -12 84q0 100 82 176q78 70 168 70q88 0 145 -92q45 -76 45 -160q0 -111 -39 -201q-94 -190 -206.5 -272t-286.5 -82q-117 6 -195 135q-63 106 -63 205zM281 1155q4 41 198 150q188 100 221 98q47 -4 76 -29 q66 -72 201 -215q24 -18 20 -49q-2 -33 -25.5 -51.5t-47.5 -34.5q-37 31 -150 133q-90 80 -98 82q-35 4 -170 -82t-133 -86q-27 2 -60.5 34t-31.5 50z" />
<glyph unicode="&#xf5;" d="M68 250q0 233 178 465.5t362 232.5q70 0 127 -39q68 -47 62 -121q-37 -37 -60 -36q-8 0 -44 17t-44 17q-152 0 -291 -204q-127 -188 -122 -332q2 -53 20 -111q25 -72 61 -84q31 -12 45 -12q135 0 236 154q86 129 86 235q0 102 -31 109q-4 4 -8 4q-43 0 -86 -92 q-12 -37 -22 -74q-23 -55 -60 -55q-29 0 -47 63q-12 45 -12 84q0 100 82 176q78 70 168 70q88 0 145 -92q45 -76 45 -160q0 -111 -39 -201q-94 -190 -206.5 -272t-286.5 -82q-117 6 -195 135q-63 106 -63 205zM223 1306q0 39 45 76q37 33 67 36.5t54 3.5q107 0 230 -79 t198 -84q62 -4 159 110q73 -11 86 -92q-4 -55 -67 -114q-69 -63 -151 -63q-100 0 -223 77.5t-166 77.5q-15 0 -29 -4q-5 -2 -37 -14.5t-43 -12.5q-37 0 -73 14q-50 33 -50 68z" />
<glyph unicode="&#xf6;" d="M68 250q0 233 178 465.5t362 232.5q70 0 127 -39q68 -47 62 -121q-37 -37 -60 -36q-8 0 -44 17t-44 17q-152 0 -291 -204q-127 -188 -122 -332q2 -53 20 -111q25 -72 61 -84q31 -12 45 -12q135 0 236 154q86 129 86 235q0 102 -31 109q-4 4 -8 4q-43 0 -86 -92 q-12 -37 -22 -74q-23 -55 -60 -55q-29 0 -47 63q-12 45 -12 84q0 100 82 176q78 70 168 70q88 0 145 -92q45 -76 45 -160q0 -111 -39 -201q-94 -190 -206.5 -272t-286.5 -82q-117 6 -195 135q-63 106 -63 205zM375 1342q8 37 54 62.5t81 18.5q109 -24 82 -143 q-8 -39 -48 -62.5t-77 -15.5q-41 8 -71.5 50t-20.5 90zM834 1276q8 35 50 62.5t87 17.5q98 -23 78 -113q-23 -98 -158 -65q-25 4 -43.5 41t-13.5 57z" />
<glyph unicode="&#xf7;" horiz-adv-x="817" d="M70 457q2 29 19 50t32 21q129 2 256 4q145 2 250 -10q51 -6 100 -14q10 -12 20.5 -23.5t6.5 -33.5q-4 -23 -30.5 -28t-53.5 -5q-442 -74 -484 -68q-6 0 -20 -2t-19 -2q-31 4 -53 33q-31 33 -24 78zM258 137q0 39 34 72t70 33q43 0 82 -34t39 -83q0 -37 -38.5 -73 t-73.5 -36q-113 0 -113 121zM297 752q0 100 139 100q25 0 51.5 -32t26.5 -52q0 -37 -35 -73t-82 -36q-100 1 -100 93z" />
<glyph unicode="&#xf8;" d="M68 250q0 233 178 465.5t362 232.5q70 0 127 -39q68 -47 62 -121q-37 -37 -60 -36q-8 0 -44 17t-44 17q-152 0 -291 -204q-127 -188 -122 -332q2 -53 20 -111q25 -72 61 -84q31 -12 45 -12q135 0 236 154q86 129 86 235q0 102 -31 109q-4 4 -8 4q-43 0 -86 -92 q-12 -37 -22 -74q-23 -55 -60 -55q-29 0 -47 63q-12 45 -12 84q0 100 82 176q78 70 168 70q88 0 145 -92q45 -76 45 -160q0 -111 -39 -201q-94 -190 -206.5 -272t-286.5 -82q-117 6 -195 135q-63 106 -63 205zM140 -175q0 21 7 49q13 58 90 238q154 387 452 1098q3 8 24 13 t32 3q28 -6 57.5 -31t24.5 -49q-92 -222 -277 -662q-77 -176 -154 -355q-96 -228 -121 -362q-4 -1 -23 -14.5t-34 -13.5q-9 0 -22 4q-57 21 -56 82z" />
<glyph unicode="&#xf9;" horiz-adv-x="1126" d="M53 219q0 100 47 281q61 238 150 237q90 0 90 -110q0 -6 -59.5 -143.5t-59.5 -202.5l4 -43q39 2 152 67q238 141 393 264q37 61 76 125q84 123 135 123q37 0 73 -32t36 -48q0 -29 -62 -116q-82 -115 -115 -185q-63 -127 -63 -252l4 -112q31 -102 12.5 -121t-59.5 -19 q-57 -4 -98 72q-27 55 -31 123q-14 92 14 217v18q-106 -84 -215 -167q-184 -135 -260 -136q-70 0 -117 49.5t-47 110.5zM149 1240q0 80 81 98q69 15 281 -142q159 -115 234 -191l8 -34q-9 -6 -38 -16q-54 -12 -304.5 102.5t-257.5 146.5q-4 19 -4 36z" />
<glyph unicode="&#xfa;" horiz-adv-x="1126" d="M53 219q0 100 47 281q61 238 150 237q90 0 90 -110q0 -6 -59.5 -143.5t-59.5 -202.5l4 -43q39 2 152 67q238 141 393 264q37 61 76 125q84 123 135 123q37 0 73 -32t36 -48q0 -29 -62 -116q-82 -115 -115 -185q-63 -127 -63 -252l4 -112q31 -102 12.5 -121t-59.5 -19 q-57 -4 -98 72q-27 55 -31 123q-14 92 14 217v18q-106 -84 -215 -167q-184 -135 -260 -136q-70 0 -117 49.5t-47 110.5zM705 1021q-9 6 0 31l27 30q9 10 151 91q210 117 358 145q36 -26 46.5 -75t-22.5 -84q-22 -28 -75 -32q-70 -4 -100 -14q-297 -103 -345 -113 q-32 12 -40 21z" />
<glyph unicode="&#xfb;" horiz-adv-x="1126" d="M53 219q0 100 47 281q61 238 150 237q90 0 90 -110q0 -6 -59.5 -143.5t-59.5 -202.5l4 -43q39 2 152 67q238 141 393 264q37 61 76 125q84 123 135 123q37 0 73 -32t36 -48q0 -29 -62 -116q-82 -115 -115 -185q-63 -127 -63 -252l4 -112q31 -102 12.5 -121t-59.5 -19 q-57 -4 -98 72q-27 55 -31 123q-14 92 14 217v18q-106 -84 -215 -167q-184 -135 -260 -136q-70 0 -117 49.5t-47 110.5zM360 1171q4 41 199 150q188 100 221 98q47 -4 76 -28q66 -72 201 -215q24 -19 20 -50q-2 -33 -25.5 -51t-47.5 -35q-37 31 -150 134q-90 80 -98 81 q-35 4 -170 -82t-133 -86q-27 2 -61 34t-32 50z" />
<glyph unicode="&#xfc;" horiz-adv-x="1126" d="M53 219q0 100 47 281q61 238 150 237q90 0 90 -110q0 -6 -59.5 -143.5t-59.5 -202.5l4 -43q39 2 152 67q238 141 393 264q37 61 76 125q84 123 135 123q37 0 73 -32t36 -48q0 -29 -62 -116q-82 -115 -115 -185q-63 -127 -63 -252l4 -112q31 -102 12.5 -121t-59.5 -19 q-57 -4 -98 72q-27 55 -31 123q-14 92 14 217v18q-106 -84 -215 -167q-184 -135 -260 -136q-70 0 -117 49.5t-47 110.5zM371 1282q8 37 54 62.5t81 18.5q109 -24 82 -143q-8 -39 -48 -62.5t-77 -15.5q-41 8 -71.5 50t-20.5 90zM830 1216q8 35 50 62.5t87 17.5 q98 -23 78 -113q-23 -98 -158 -65q-25 4 -43.5 41t-13.5 57z" />
<glyph unicode="&#xfd;" horiz-adv-x="1148" d="M100 0q-2 23 86 518q45 219 64 221q37 37 77 16.5t48 -67.5l-49 -256q-50 -256 -45 -303q57 8 239 172q172 158 182 191q61 186 125 372q80 221 146 312q147 115 184 -123q0 -190 -268 -527q0 6 -29 -45t-41 -86q-268 -922 -377 -1491q-49 -223 -67 -426q-8 -23 -35 -55 q-43 -27 -66.5 -26t-46.5 42q-4 4 -9 26t-5 52q0 236 197 940q74 246 204 750q-111 -125 -280 -230q-106 -51 -139 -57q-61 2 -75 26.5t-20 53.5zM586 1362q-8 6 0 31l24 30q8 10 135 90q188 117 320 144q33 -25 42 -74t-20 -84q-20 -27 -67 -31q-63 -4 -90 -14 q-265 -103 -308 -113q-29 12 -36 21z" />
<glyph unicode="&#xff;" horiz-adv-x="1148" d="M100 0q-2 23 86 518q45 219 64 221q37 37 77 16.5t48 -67.5l-49 -256q-50 -256 -45 -303q57 8 239 172q172 158 182 191q61 186 125 372q80 221 146 312q147 115 184 -123q0 -190 -268 -527q0 6 -29 -45t-41 -86q-268 -922 -377 -1491q-49 -223 -67 -426q-8 -23 -35 -55 q-43 -27 -66.5 -26t-46.5 42q-4 4 -9 26t-5 52q0 236 197 940q74 246 204 750q-111 -125 -280 -230q-106 -51 -139 -57q-61 2 -75 26.5t-20 53.5zM330 1518q8 35 55 59.5t84 17.5q111 -22 84 -135q-8 -37 -49 -59.5t-80 -14.5q-43 6 -74 46.5t-20 85.5zM831 1645 q8 33 52.5 59.5t89.5 15.5q103 -22 80 -106q-23 -94 -162 -64q-25 4 -44.5 39t-15.5 56z" />
<glyph unicode="&#x152;" horiz-adv-x="3108" d="M98 612q0 195 129 465q141 289 351 477q244 219 505 220q82 0 166 -43q106 -53 133 -144q10 -33 4 -74q-8 -61 -8 -67q201 -78 303 -256q88 -148 88 -324q0 -385 -306 -691t-709 -331q-18 -2 -70 2q-57 4 -63 4q-16 0 -64 17q-53 20 -84 41q-213 143 -301 332 q-74 158 -74 372zM297 567q0 -186 96 -354q125 -219 344 -219q313 0 572 268q268 277 268 633q0 211 -152 338q-137 117 -333 117q-100 0 -197 -41q-61 -27 -133 -76q-59 -41 -70 -41q-29 0 -28 29q0 135 202 219q145 59 246 59h131v29q-45 88 -135 88q-193 0 -391 -180 q-178 -164 -299 -412t-121 -457zM1014 631q0 47 106 139q104 80 176 107q78 45 242 84q2 0 55 12l39 108q-23 8 -71 13.5t-62 5.5q-158 12 -182 16q-115 25 -115 101q0 45 20 51q68 23 201 43q111 18 137 18q410 53 764 53q82 0 158 -4q66 -2 172.5 -9t294.5 -32 q207 -31 326 -80q6 -8 13 -17t7 -19q0 -8 -4 -15q-55 -20 -86 -20q8 0 -273.5 13t-324.5 13q-10 0 -210 -4t-210 -4q-27 0 -65 -12q346 -80 346 -178q0 -72 -181 -103q-4 -2 -120 -16l-256 -35q-61 -6 -129 -22q-4 -14 -23 -84q-14 -74 -14 -119q0 -213 123 -367 q137 -172 364 -172q59 0 129 15q168 37 393 174q215 129 285 196q34 -21 18 -78q0 -6 -61 -88q-47 -51 -106.5 -98t-157.5 -115q-76 -55 -211 -108q-156 -61 -262 -62q-68 -6 -146 7q-135 14 -276 108q-86 63 -162 176q-70 96 -102 234q-559 -8 -559 174zM1300 631 q16 -35 168 -62l86 -10q0 8 -4 61.5t4 149.5q-47 -2 -125 -35q-119 -45 -129 -104zM1844 1040.5q-3 -10.5 56.5 0t67.5 10.5l119 20q-20 2 -183 2q-39 0 -49 -8q-8 -14 -11 -24.5z" />
<glyph unicode="&#x153;" horiz-adv-x="1476" d="M68 250q0 233 178 465.5t362 232.5q70 0 127 -39q68 -47 62 -121q-37 -37 -60 -36q-8 0 -44 17t-44 17q-152 0 -291 -204q-127 -188 -122 -332q2 -53 20 -111q25 -72 61 -84q31 -12 45 -12q135 0 236 154q86 129 86 235q0 102 -31 109q-4 4 -8 4q-43 0 -86 -92 q-12 -37 -22 -74q-23 -55 -60 -55q-29 0 -47 63q-12 45 -12 84q0 100 82 176q78 70 168 70q88 0 145 -92q45 -76 45 -160q0 -111 -39 -201q-94 -190 -206.5 -272t-286.5 -82q-117 6 -195 135q-63 106 -63 205zM675 348q0 180 129 357q145 201 344 200q92 0 150 -76 q51 -68 47 -157q-4 -119 -92 -283q-72 -141 -238 -164q-57 -12 -120 -8q14 -57 71.5 -93t130.5 -36q78 0 173.5 47t93.5 47q31 0 38 -16q4 -25 -51 -80q-45 -49 -117.5 -80t-134.5 -39q-72 -6 -161 13.5t-179 130.5q-84 116 -84 237zM860 383q45 -8 114 -2q106 6 162 156 q39 104 39 190q0 14 -22 23q-66 6 -176.5 -120t-114.5 -208z" />
<glyph unicode="&#x178;" horiz-adv-x="1880" d="M41 1489q37 37 74 37q90 0 117.5 -42t46.5 -138q51 -227 274 -508t571 -478q104 115 236 261l-219 753q-18 211 293 336q240 98 462 98q154 0 283 -49q191 -71 191 -227q0 -104 -213 -344q-121 -137 -396 -404q-211 -209 -209 -229q-4 14 35 -131q29 -102 25 -166 q-8 -88 -72 -115q-117 -45 -364 29q-150 -152 -324 -417t-109 -404q6 -37 11 -45q31 -43 63 -90q-45 -49 -96 -50q-90 0 -141 101q-41 76 -41 166q-25 219 477 809q-897 592 -975 1247zM209 1841q0 100 139 101q25 0 51.5 -32t26.5 -52q0 -37 -35 -73t-82 -36 q-100 0 -100 92zM1124 2017q0 39 34 72t71 33q43 0 82 -34t39 -83q0 -37 -39 -73t-74 -36q-113 0 -113 121zM1294 295q70 -33 107 -33q33 0 39 6q14 16 14 49l-31 125q-59 -76 -129 -147zM1327 1374q0 -70 68 -323q37 -139 88 -312q215 215 438 447q283 295 279 379 q0 57 -99 88q-72 23 -151 22q-127 0 -338 -69q-285 -92 -285 -232z" />
<glyph unicode="&#x2c6;" horiz-adv-x="978" d="M61 1202q0 49 222 195q211 139 249 139q55 0 95 -25q82 -80 258 -233q28 -20 28 -57q0 -39 -26.5 -62.5t-52.5 -46.5q-47 33 -191 141q-115 88 -125 88q-41 0 -191.5 -114.5t-148.5 -114.5q-31 0 -74 35t-43 55z" />
<glyph unicode="&#x2dc;" horiz-adv-x="993" d="M37 1104q0 43 49 84q41 37 74 41t59 4q117 0 252 -88t217 -94q68 -4 174 123q80 -13 94 -103q-4 -61 -73 -127q-76 -70 -166 -70q-109 0 -244 86.5t-182 86.5q-16 0 -31 -5q-6 -2 -41 -16t-47 -14q-41 0 -80 16q-55 37 -55 76z" />
<glyph unicode="&#x2000;" horiz-adv-x="1213" />
<glyph unicode="&#x2001;" horiz-adv-x="2427" />
<glyph unicode="&#x2002;" horiz-adv-x="1213" />
<glyph unicode="&#x2003;" horiz-adv-x="2427" />
<glyph unicode="&#x2004;" horiz-adv-x="809" />
<glyph unicode="&#x2005;" horiz-adv-x="606" />
<glyph unicode="&#x2006;" horiz-adv-x="404" />
<glyph unicode="&#x2007;" horiz-adv-x="404" />
<glyph unicode="&#x2008;" horiz-adv-x="303" />
<glyph unicode="&#x2009;" horiz-adv-x="485" />
<glyph unicode="&#x200a;" horiz-adv-x="134" />
<glyph unicode="&#x2010;" horiz-adv-x="1193" d="M133 641q0 31 19.5 57.5t40.5 28.5q178 18 356 39q203 18 350 18q74 0 143 -4q16 -10 33 -21t12 -36q-2 -27 -37.5 -35t-72.5 -14q-604 -135 -664 -135q-8 0 -27.5 -4.5t-27.5 -4.5q-41 0 -80 29q-45 33 -45 82z" />
<glyph unicode="&#x2011;" horiz-adv-x="1193" d="M133 641q0 31 19.5 57.5t40.5 28.5q178 18 356 39q203 18 350 18q74 0 143 -4q16 -10 33 -21t12 -36q-2 -27 -37.5 -35t-72.5 -14q-604 -135 -664 -135q-8 0 -27.5 -4.5t-27.5 -4.5q-41 0 -80 29q-45 33 -45 82z" />
<glyph unicode="&#x2012;" horiz-adv-x="1193" d="M133 641q0 31 19.5 57.5t40.5 28.5q178 18 356 39q203 18 350 18q74 0 143 -4q16 -10 33 -21t12 -36q-2 -27 -37.5 -35t-72.5 -14q-604 -135 -664 -135q-8 0 -27.5 -4.5t-27.5 -4.5q-41 0 -80 29q-45 33 -45 82z" />
<glyph unicode="&#x2013;" horiz-adv-x="1193" d="M133 641q0 31 19.5 57.5t40.5 28.5q178 18 356 39q203 18 350 18q74 0 143 -4q16 -10 33 -21t12 -36q-2 -27 -37.5 -35t-72.5 -14q-604 -135 -664 -135q-8 0 -27.5 -4.5t-27.5 -4.5q-41 0 -80 29q-45 33 -45 82z" />
<glyph unicode="&#x2014;" horiz-adv-x="1339" d="M57 633q0 39 36 72.5t73 33.5q8 0 17.5 -6t17.5 -6q106 16 213 35l463 24q51 2 192 -10q133 -12 160 -18q42 -13 67 -33q8 -35 -8 -45q-109 -16 -137 -16q-238 8 -602 -50l-379 -61q-31 0 -72 28.5t-41 51.5z" />
<glyph unicode="&#x2018;" horiz-adv-x="430" d="M133 1085q0 25 14 148q18 147 37 223q14 53 84 53q43 0 82 -45q33 -39 33 -65q0 -6 -39 -156q-47 -172 -63 -246q-14 -14 -27 -28q-25 -20 -59 -31q-62 41 -62 147z" />
<glyph unicode="&#x2019;" horiz-adv-x="430" d="M133 1085q0 25 14 148q18 147 37 223q14 53 84 53q43 0 82 -45q33 -39 33 -65q0 -6 -39 -156q-47 -172 -63 -246q-14 -14 -27 -28q-25 -20 -59 -31q-62 41 -62 147z" />
<glyph unicode="&#x201a;" horiz-adv-x="430" d="M100 -147q0 25 15 147q18 147 37 223q14 53 84 53q43 0 81 -45q33 -39 33 -65q0 -6 -39 -156q-47 -172 -63 -246q-14 -14 -27 -28q-25 -20 -59 -31q-62 42 -62 148z" />
<glyph unicode="&#x201c;" horiz-adv-x="653" d="M68 1559q0 31 25.5 53t49.5 22q29 0 65 -16t36 -25q14 -96 39 -295q4 -4 9 -20t9 -16q27 68 37 98q16 55 27 131v90q6 68 61 68q88 0 106 -47q9 -16 9 -129q0 -354 -97 -355q-27 0 -55 53q-12 33 -27 66l-6 -23q-14 -92 -24 -120q-27 -72 -88 -72q-66 0 -127 264 q-49 211 -49 273z" />
<glyph unicode="&#x201d;" horiz-adv-x="653" d="M68 1559q0 31 25.5 53t49.5 22q29 0 65 -16t36 -25q14 -96 39 -295q4 -4 9 -20t9 -16q27 68 37 98q16 55 27 131v90q6 68 61 68q88 0 106 -47q9 -16 9 -129q0 -354 -97 -355q-27 0 -55 53q-12 33 -27 66l-6 -23q-14 -92 -24 -120q-27 -72 -88 -72q-66 0 -127 264 q-49 211 -49 273z" />
<glyph unicode="&#x201e;" horiz-adv-x="653" d="M80 242q0 31 25.5 53t50.5 22q29 0 64.5 -16t35.5 -25q14 -96 39 -294q4 -4 9 -20.5t9 -16.5q27 68 37 98q16 55 27 131v90q6 68 61 68q88 0 107 -47q8 -16 8 -129q0 -354 -96 -355q-27 0 -56 54q-12 33 -26 65l-6 -22q-14 -92 -25 -121q-27 -72 -88 -72q-66 0 -127 264 q-49 211 -49 273z" />
<glyph unicode="&#x2026;" horiz-adv-x="1269" d="M195 61q0 102 139 103q25 0 51.5 -33t26.5 -53q0 -37 -33 -70q-37 -39 -84 -39q-100 0 -100 92zM555 61q0 102 139 103q25 0 51.5 -33t26.5 -53q0 -37 -33 -70q-37 -39 -84 -39q-100 0 -100 92zM926 61q0 102 139 103q25 0 51.5 -33t26.5 -53q0 -37 -33 -70 q-37 -39 -84 -39q-100 0 -100 92z" />
<glyph unicode="&#x202f;" horiz-adv-x="485" />
<glyph unicode="&#x2039;" horiz-adv-x="731" d="M57 444q0 39 148 193q82 84 166 168q43 51 84 102q63 70 94 70q39 0 67.5 -25.5t28.5 -48.5q0 -51 -182 -233.5t-182 -202.5q0 -27 163 -141q103 -70 207 -138q-14 0 -20 -6q14 -27 12 -41q-6 -2 -26.5 -14t-30.5 -12h-27q6 0 -43 20l-22 -6q-436 229 -437 315z" />
<glyph unicode="&#x203a;" horiz-adv-x="806" d="M80 166q0 39 220 180t220 164q0 20 -164 160q-156 129 -196 155q-47 68 -47 103q0 10 34.5 37.5t51.5 27.5q29 0 286.5 -232t257.5 -263q0 -51 -272 -242q-262 -182 -295 -182q-25 0 -60.5 35.5t-35.5 56.5z" />
<glyph unicode="&#x205f;" horiz-adv-x="606" />
<glyph unicode="&#x20ac;" horiz-adv-x="1445" d="M68 715q0 33 25.5 54.5t60.5 21.5h25.5h25.5q78 0 117 10q59 197 253 454q244 326 457 326q100 0 207 -61q133 -74 133 -187q0 -66 -43 -116q-23 -27 -86 -72q0 2 -24 0q-23 -2 -23 8q0 4 4 10q29 63 29 142q0 55 -43 84q-35 25 -80 24q-150 0 -326 -203 q-160 -184 -229 -389q35 2 567 2q18 -6 22 -21l3 -16q-76 -61 -281 -92q-176 -25 -350 -49q-16 -12 -33 -59q86 0 549 -8q53 -4 90 -31v-41q-10 -20 -313 -57q-168 -18 -334 -37q33 -360 342 -361q49 0 170 33q137 37 184 76q14 -6 17 -19q2 -8 -2 -25.5t-4 -23.5 q0 -55 -150 -119q-94 -41 -156 -55q-49 -10 -178 -10q-117 0 -233 112q-96 92 -136 193.5t-34 181.5q-6 14 -29.5 25.5t-23.5 44.5q0 88 34 80l-2 53q-92 6 -131 20q-72 27 -71 97z" />
<glyph unicode="&#x2122;" horiz-adv-x="2252" d="M47 1675q0 39 113 62q84 16 155 16q2 0 36 4t40 6q8 145 76 146q55 0 55 -58q0 -16 -6 -43.5t-6 -29.5q-10 0 155.5 16t323.5 16q84 0 148 -26q76 -33 75 -90q0 -47 -22 -74q-6 8 -13.5 30.5t-15.5 32.5q-12 16 -47 21q-29 2 -55 4q-80 6 -250 6q-31 0 -160 -18 q-145 -23 -156.5 -39.5t-19.5 -171.5q-6 -102 -6 -203q0 -109 33 -262q33 -141 65 -285v-22q-16 8 -43 26q-12 -10 2 -71q2 0 -28 0q-23 0 -45 39q-4 8 -21 53q-80 209 -72 506q2 94 -10 133t-72 104q-41 47 -94 78q-12 6 -84 37q-8 4 -29.5 26.5t-21.5 30.5zM274 1608 q2 -8 33 -53.5t51 -71.5l17 170h-23q-16 0 -45 -15q-33 -14 -33 -30zM631 762q0 117 104 276q41 63 193 252q35 43 176 180q145 143 162 144q59 0 59 -62q0 -6 -78 -192q-76 -190 -82 -289q57 94 103 199l53 119q20 41 45 41q47 0 68 -58q6 -18 14 -94l2 -365q51 49 145 269 q76 176 152 442q2 8 18.5 24.5t26.5 16.5q18 0 38.5 -16.5t20.5 -28.5q8 -84 17 -244q2 -53 16 -127q12 -66 27 -127q29 -164 147 -282q98 -98 203 -123q12 -4 35 -4q27 0 70 4l44 4l23 -10q-4 -23 -66 -45q-55 -23 -86 -23q-57 0 -116 21q-147 49 -252 190q-72 96 -107 223 q-25 111 -47 221q-43 -102 -86 -206q-70 -160 -127 -250q-82 -121 -145 -121q-68 0 -68 176q0 41 4 94t4 55.5t1 37t1 57.5q-25 -37 -75.5 -133.5t-77.5 -133.5q-41 -59 -74 -59q-39 0 -61 55q-18 43 -19 93q0 68 35 200q25 90 68 189q-178 -154 -326 -400q-35 -53 -57 -127 q-2 -29 -11 -82q-2 -8 -24.5 -21t-28.5 -13q-25 0 -43 18t-18 35z" />
<glyph unicode="&#xe000;" horiz-adv-x="890" d="M0 0v891h891v-891h-891z" />
</font>
</defs>
</svg>
